<svg width="1127" height="533" viewBox="0 0 1127 533" fill="none" xmlns="http://www.w3.org/2000/svg">
<path fill-rule="evenodd" clip-rule="evenodd" d="M557.623 0.867636C526.995 6.27674 499.688 21.1867 480.68 42.8774C444.97 83.6315 438.668 145.159 465.763 188.53C473.635 201.133 483.249 211.839 516.328 244.839C550.686 279.115 554.12 282.059 563.804 285.533C566.744 286.588 570.286 287.008 576.167 287C585.228 286.988 590.512 285.372 599.158 279.973C603.843 277.046 673.275 208.641 675.134 205.121C676.719 202.117 676.601 197.931 674.858 195.326C673.181 192.818 668.523 188.523 653.229 175.383C642.033 165.764 639.155 164.181 634.896 165.3C633.086 165.776 620.066 177.768 595.394 201.679C588.742 208.126 582.099 214.02 580.63 214.778C576.678 216.816 572.395 215.933 567.274 212.022C560.902 207.156 530.511 176.977 525.296 170.337C507.983 148.294 504.104 125.432 513.871 103.013C518.878 91.5223 530.349 77.9963 541.178 70.8135C553.545 62.6102 565.251 59.3292 579.876 59.9665C597.558 60.7362 609.469 66.3368 624.455 80.9253C629.363 85.7029 633.857 89.9147 634.443 90.2856C636.287 91.4524 642.062 91.0437 644.185 89.5957C648.052 86.9594 675.624 60.2049 676.787 57.9592C679.408 52.9029 678.087 49.6359 669.792 40.6629C663.288 33.6273 653.893 25.8253 644.987 20.0651C632.058 11.7023 621.428 7.11631 605.426 2.99822C595.921 0.551875 593.911 0.324927 579.464 0.060968C568.893 -0.131451 561.796 0.130031 557.623 0.867636ZM566.691 89.1253C565.56 89.3358 562.407 90.5273 559.686 91.7731C538.624 101.415 532.964 128.984 548.361 146.931C558.627 158.897 577.866 162.44 592.402 155.042C601.615 150.352 608.972 139.712 610.279 129.185C613.094 106.515 597.274 88.2446 575.163 88.6303C571.636 88.6919 567.824 88.9148 566.691 89.1253Z" fill="#FEC400"/>
<path d="M113.058 356C113.058 346.387 115.205 337.8 119.498 330.24C123.885 322.587 129.812 316.66 137.278 312.46C144.838 308.167 153.285 306.02 162.618 306.02C173.538 306.02 183.105 308.82 191.318 314.42C199.532 320.02 205.272 327.767 208.538 337.66H185.998C183.758 332.993 180.585 329.493 176.478 327.16C172.465 324.827 167.798 323.66 162.478 323.66C156.785 323.66 151.698 325.013 147.218 327.72C142.832 330.333 139.378 334.067 136.858 338.92C134.432 343.773 133.218 349.467 133.218 356C133.218 362.44 134.432 368.133 136.858 373.08C139.378 377.933 142.832 381.713 147.218 384.42C151.698 387.033 156.785 388.34 162.478 388.34C167.798 388.34 172.465 387.173 176.478 384.84C180.585 382.413 183.758 378.867 185.998 374.2H208.538C205.272 384.187 199.532 391.98 191.318 397.58C183.198 403.087 173.632 405.84 162.618 405.84C153.285 405.84 144.838 403.74 137.278 399.54C129.812 395.247 123.885 389.32 119.498 381.76C115.205 374.2 113.058 365.613 113.058 356ZM220.239 365.94C220.239 358.1 221.779 351.147 224.859 345.08C228.032 339.013 232.279 334.347 237.599 331.08C243.012 327.813 249.032 326.18 255.659 326.18C261.446 326.18 266.486 327.347 270.779 329.68C275.166 332.013 278.666 334.953 281.279 338.5V327.44H301.019V405H281.279V393.66C278.759 397.3 275.259 400.333 270.779 402.76C266.392 405.093 261.306 406.26 255.519 406.26C248.986 406.26 243.012 404.58 237.599 401.22C232.279 397.86 228.032 393.147 224.859 387.08C221.779 380.92 220.239 373.873 220.239 365.94ZM281.279 366.22C281.279 361.46 280.346 357.4 278.479 354.04C276.612 350.587 274.092 347.973 270.919 346.2C267.746 344.333 264.339 343.4 260.699 343.4C257.059 343.4 253.699 344.287 250.619 346.06C247.539 347.833 245.019 350.447 243.059 353.9C241.192 357.26 240.259 361.273 240.259 365.94C240.259 370.607 241.192 374.713 243.059 378.26C245.019 381.713 247.539 384.373 250.619 386.24C253.792 388.107 257.152 389.04 260.699 389.04C264.339 389.04 267.746 388.153 270.919 386.38C274.092 384.513 276.612 381.9 278.479 378.54C280.346 375.087 281.279 370.98 281.279 366.22ZM416.482 326.32C426.002 326.32 433.655 329.26 439.442 335.14C445.322 340.927 448.262 349.047 448.262 359.5V405H428.662V362.16C428.662 356.093 427.122 351.473 424.042 348.3C420.962 345.033 416.762 343.4 411.442 343.4C406.122 343.4 401.875 345.033 398.702 348.3C395.622 351.473 394.082 356.093 394.082 362.16V405H374.482V362.16C374.482 356.093 372.942 351.473 369.862 348.3C366.782 345.033 362.582 343.4 357.262 343.4C351.849 343.4 347.555 345.033 344.382 348.3C341.302 351.473 339.762 356.093 339.762 362.16V405H320.162V327.44H339.762V336.82C342.282 333.553 345.502 330.987 349.422 329.12C353.435 327.253 357.822 326.32 362.582 326.32C368.649 326.32 374.062 327.627 378.822 330.24C383.582 332.76 387.269 336.4 389.882 341.16C392.402 336.68 396.042 333.087 400.802 330.38C405.655 327.673 410.882 326.32 416.482 326.32ZM486.461 338.64C488.981 335.093 492.435 332.153 496.821 329.82C501.301 327.393 506.388 326.18 512.081 326.18C518.708 326.18 524.681 327.813 530.001 331.08C535.415 334.347 539.661 339.013 542.741 345.08C545.915 351.053 547.501 358.007 547.501 365.94C547.501 373.873 545.915 380.92 542.741 387.08C539.661 393.147 535.415 397.86 530.001 401.22C524.681 404.58 518.708 406.26 512.081 406.26C506.388 406.26 501.348 405.093 496.961 402.76C492.668 400.427 489.168 397.487 486.461 393.94V441.96H466.861V327.44H486.461V338.64ZM527.481 365.94C527.481 361.273 526.501 357.26 524.541 353.9C522.675 350.447 520.155 347.833 516.981 346.06C513.901 344.287 510.541 343.4 506.901 343.4C503.355 343.4 499.995 344.333 496.821 346.2C493.741 347.973 491.221 350.587 489.261 354.04C487.395 357.493 486.461 361.553 486.461 366.22C486.461 370.887 487.395 374.947 489.261 378.4C491.221 381.853 493.741 384.513 496.821 386.38C499.995 388.153 503.355 389.04 506.901 389.04C510.541 389.04 513.901 388.107 516.981 386.24C520.155 384.373 522.675 381.713 524.541 378.26C526.501 374.807 527.481 370.7 527.481 365.94ZM634.964 327.44V405H615.224V395.2C612.704 398.56 609.391 401.22 605.284 403.18C601.271 405.047 596.884 405.98 592.124 405.98C586.057 405.98 580.691 404.72 576.024 402.2C571.357 399.587 567.671 395.807 564.964 390.86C562.351 385.82 561.044 379.847 561.044 372.94V327.44H580.644V370.14C580.644 376.3 582.184 381.06 585.264 384.42C588.344 387.687 592.544 389.32 597.864 389.32C603.277 389.32 607.524 387.687 610.604 384.42C613.684 381.06 615.224 376.3 615.224 370.14V327.44H634.964ZM683.983 406.26C677.636 406.26 671.943 405.14 666.903 402.9C661.863 400.567 657.849 397.44 654.863 393.52C651.969 389.6 650.383 385.26 650.103 380.5H669.843C670.216 383.487 671.663 385.96 674.183 387.92C676.796 389.88 680.016 390.86 683.843 390.86C687.576 390.86 690.469 390.113 692.523 388.62C694.669 387.127 695.743 385.213 695.743 382.88C695.743 380.36 694.436 378.493 691.823 377.28C689.303 375.973 685.243 374.573 679.643 373.08C673.856 371.68 669.096 370.233 665.363 368.74C661.723 367.247 658.549 364.96 655.843 361.88C653.229 358.8 651.923 354.647 651.923 349.42C651.923 345.127 653.136 341.207 655.563 337.66C658.083 334.113 661.629 331.313 666.203 329.26C670.869 327.207 676.329 326.18 682.583 326.18C691.823 326.18 699.196 328.513 704.703 333.18C710.209 337.753 713.243 343.96 713.803 351.8H695.043C694.763 348.72 693.456 346.293 691.123 344.52C688.883 342.653 685.849 341.72 682.023 341.72C678.476 341.72 675.723 342.373 673.763 343.68C671.896 344.987 670.963 346.807 670.963 349.14C670.963 351.753 672.269 353.76 674.883 355.16C677.496 356.467 681.556 357.82 687.063 359.22C692.663 360.62 697.283 362.067 700.923 363.56C704.563 365.053 707.689 367.387 710.303 370.56C713.009 373.64 714.409 377.747 714.503 382.88C714.503 387.36 713.243 391.373 710.723 394.92C708.296 398.467 704.749 401.267 700.083 403.32C695.509 405.28 690.143 406.26 683.983 406.26ZM798.632 336.68C796.392 332.573 793.312 329.447 789.392 327.3C785.472 325.153 780.898 324.08 775.672 324.08C769.885 324.08 764.752 325.387 760.272 328C755.792 330.613 752.292 334.347 749.772 339.2C747.252 344.053 745.992 349.653 745.992 356C745.992 362.533 747.252 368.227 749.772 373.08C752.385 377.933 755.978 381.667 760.552 384.28C765.125 386.893 770.445 388.2 776.512 388.2C783.978 388.2 790.092 386.24 794.852 382.32C799.612 378.307 802.738 372.753 804.232 365.66H770.632V350.68H823.552V367.76C822.245 374.573 819.445 380.873 815.152 386.66C810.858 392.447 805.305 397.113 798.492 400.66C791.772 404.113 784.212 405.84 775.812 405.84C766.385 405.84 757.845 403.74 750.192 399.54C742.632 395.247 736.658 389.32 732.272 381.76C727.978 374.2 725.832 365.613 725.832 356C725.832 346.387 727.978 337.8 732.272 330.24C736.658 322.587 742.632 316.66 750.192 312.46C757.845 308.167 766.338 306.02 775.672 306.02C786.685 306.02 796.252 308.727 804.372 314.14C812.492 319.46 818.092 326.973 821.172 336.68H798.632ZM857.653 339.48C860.173 335.373 863.439 332.153 867.453 329.82C871.559 327.487 876.226 326.32 881.453 326.32V346.9H876.273C870.113 346.9 865.446 348.347 862.273 351.24C859.193 354.133 857.653 359.173 857.653 366.36V405H838.053V327.44H857.653V339.48ZM904.594 318.2C901.141 318.2 898.247 317.127 895.914 314.98C893.674 312.74 892.554 309.987 892.554 306.72C892.554 303.453 893.674 300.747 895.914 298.6C898.247 296.36 901.141 295.24 904.594 295.24C908.047 295.24 910.894 296.36 913.134 298.6C915.467 300.747 916.634 303.453 916.634 306.72C916.634 309.987 915.467 312.74 913.134 314.98C910.894 317.127 908.047 318.2 904.594 318.2ZM914.254 327.44V405H894.654V327.44H914.254ZM928.579 365.94C928.579 358.1 930.119 351.147 933.199 345.08C936.372 339.013 940.666 334.347 946.079 331.08C951.492 327.813 957.512 326.18 964.139 326.18C969.179 326.18 973.986 327.3 978.559 329.54C983.132 331.687 986.772 334.58 989.479 338.22V301.4H1009.36V405H989.479V393.52C987.052 397.347 983.646 400.427 979.259 402.76C974.872 405.093 969.786 406.26 963.999 406.26C957.466 406.26 951.492 404.58 946.079 401.22C940.666 397.86 936.372 393.147 933.199 387.08C930.119 380.92 928.579 373.873 928.579 365.94ZM989.619 366.22C989.619 361.46 988.686 357.4 986.819 354.04C984.952 350.587 982.432 347.973 979.259 346.2C976.086 344.333 972.679 343.4 969.039 343.4C965.399 343.4 962.039 344.287 958.959 346.06C955.879 347.833 953.359 350.447 951.399 353.9C949.532 357.26 948.599 361.273 948.599 365.94C948.599 370.607 949.532 374.713 951.399 378.26C953.359 381.713 955.879 384.373 958.959 386.24C962.132 388.107 965.492 389.04 969.039 389.04C972.679 389.04 976.086 388.153 979.259 386.38C982.432 384.513 984.952 381.9 986.819 378.54C988.686 375.087 989.619 370.98 989.619 366.22Z" fill="#FEC400"/>
<path d="M30.3661 480.496L19.0381 502.336V514H12.3181V502.336L0.942063 480.496H8.52606L15.7261 495.808L22.8781 480.496H30.3661ZM46.0497 514.432C43.4897 514.432 41.1857 513.872 39.1377 512.752C37.0897 511.6 35.4737 509.984 34.2897 507.904C33.1377 505.824 32.5617 503.424 32.5617 500.704C32.5617 497.984 33.1537 495.584 34.3377 493.504C35.5537 491.424 37.2017 489.824 39.2817 488.704C41.3617 487.552 43.6817 486.976 46.2417 486.976C48.8017 486.976 51.1217 487.552 53.2017 488.704C55.2817 489.824 56.9137 491.424 58.0977 493.504C59.3137 495.584 59.9217 497.984 59.9217 500.704C59.9217 503.424 59.2977 505.824 58.0497 507.904C56.8337 509.984 55.1697 511.6 53.0577 512.752C50.9777 513.872 48.6417 514.432 46.0497 514.432ZM46.0497 508.576C47.2657 508.576 48.4017 508.288 49.4577 507.712C50.5457 507.104 51.4097 506.208 52.0497 505.024C52.6897 503.84 53.0097 502.4 53.0097 500.704C53.0097 498.176 52.3377 496.24 50.9937 494.896C49.6817 493.52 48.0657 492.832 46.1457 492.832C44.2257 492.832 42.6097 493.52 41.2977 494.896C40.0177 496.24 39.3777 498.176 39.3777 500.704C39.3777 503.232 40.0017 505.184 41.2497 506.56C42.5297 507.904 44.1297 508.576 46.0497 508.576ZM89.9551 487.408V514H83.1871V510.64C82.3231 511.792 81.1871 512.704 79.7791 513.376C78.4031 514.016 76.8991 514.336 75.2671 514.336C73.1871 514.336 71.3471 513.904 69.7471 513.04C68.1471 512.144 66.8831 510.848 65.9551 509.152C65.0591 507.424 64.6111 505.376 64.6111 503.008V487.408H71.3311V502.048C71.3311 504.16 71.8591 505.792 72.9151 506.944C73.9711 508.064 75.4111 508.624 77.2351 508.624C79.0911 508.624 80.5471 508.064 81.6031 506.944C82.6591 505.792 83.1871 504.16 83.1871 502.048V487.408H89.9551ZM103.305 491.536C104.169 490.128 105.289 489.024 106.665 488.224C108.073 487.424 109.673 487.024 111.465 487.024V494.08H109.689C107.577 494.08 105.977 494.576 104.889 495.568C103.833 496.56 103.305 498.288 103.305 500.752V514H96.5854V487.408H103.305V491.536ZM137.605 514.432C135.429 514.432 133.477 514.048 131.749 513.28C130.021 512.48 128.645 511.408 127.621 510.064C126.629 508.72 126.085 507.232 125.989 505.6H132.757C132.885 506.624 133.381 507.472 134.245 508.144C135.141 508.816 136.245 509.152 137.557 509.152C138.837 509.152 139.829 508.896 140.533 508.384C141.269 507.872 141.637 507.216 141.637 506.416C141.637 505.552 141.189 504.912 140.293 504.496C139.429 504.048 138.037 503.568 136.117 503.056C134.133 502.576 132.501 502.08 131.221 501.568C129.973 501.056 128.885 500.272 127.957 499.216C127.061 498.16 126.613 496.736 126.613 494.944C126.613 493.472 127.029 492.128 127.861 490.912C128.725 489.696 129.941 488.736 131.509 488.032C133.109 487.328 134.981 486.976 137.125 486.976C140.293 486.976 142.821 487.776 144.709 489.376C146.597 490.944 147.637 493.072 147.829 495.76H141.397C141.301 494.704 140.853 493.872 140.053 493.264C139.285 492.624 138.245 492.304 136.933 492.304C135.717 492.304 134.773 492.528 134.101 492.976C133.461 493.424 133.141 494.048 133.141 494.848C133.141 495.744 133.589 496.432 134.485 496.912C135.381 497.36 136.773 497.824 138.661 498.304C140.581 498.784 142.165 499.28 143.413 499.792C144.661 500.304 145.733 501.104 146.629 502.192C147.557 503.248 148.037 504.656 148.069 506.416C148.069 507.952 147.637 509.328 146.773 510.544C145.941 511.76 144.725 512.72 143.125 513.424C141.557 514.096 139.717 514.432 137.605 514.432ZM156.993 484.24C155.809 484.24 154.817 483.872 154.017 483.136C153.249 482.368 152.865 481.424 152.865 480.304C152.865 479.184 153.249 478.256 154.017 477.52C154.817 476.752 155.809 476.368 156.993 476.368C158.177 476.368 159.153 476.752 159.921 477.52C160.721 478.256 161.121 479.184 161.121 480.304C161.121 481.424 160.721 482.368 159.921 483.136C159.153 483.872 158.177 484.24 156.993 484.24ZM160.305 487.408V514H153.585V487.408H160.305ZM181.681 487.024C184.849 487.024 187.409 488.032 189.361 490.048C191.313 492.032 192.289 494.816 192.289 498.4V514H185.569V499.312C185.569 497.2 185.041 495.584 183.985 494.464C182.929 493.312 181.489 492.736 179.665 492.736C177.809 492.736 176.337 493.312 175.249 494.464C174.193 495.584 173.665 497.2 173.665 499.312V514H166.945V487.408H173.665V490.72C174.561 489.568 175.697 488.672 177.073 488.032C178.481 487.36 180.017 487.024 181.681 487.024ZM209.095 486.976C211.079 486.976 212.823 487.376 214.327 488.176C215.831 488.944 217.015 489.952 217.879 491.2V487.408H224.647V514.192C224.647 516.656 224.151 518.848 223.159 520.768C222.167 522.72 220.679 524.256 218.695 525.376C216.711 526.528 214.311 527.104 211.495 527.104C207.719 527.104 204.615 526.224 202.183 524.464C199.783 522.704 198.423 520.304 198.103 517.264H204.775C205.127 518.48 205.879 519.44 207.031 520.144C208.215 520.88 209.639 521.248 211.303 521.248C213.255 521.248 214.839 520.656 216.055 519.472C217.271 518.32 217.879 516.56 217.879 514.192V510.064C217.015 511.312 215.815 512.352 214.279 513.184C212.775 514.016 211.047 514.432 209.095 514.432C206.855 514.432 204.807 513.856 202.951 512.704C201.095 511.552 199.623 509.936 198.535 507.856C197.479 505.744 196.951 503.328 196.951 500.608C196.951 497.92 197.479 495.536 198.535 493.456C199.623 491.376 201.079 489.776 202.903 488.656C204.759 487.536 206.823 486.976 209.095 486.976ZM217.879 500.704C217.879 499.072 217.559 497.68 216.919 496.528C216.279 495.344 215.415 494.448 214.327 493.84C213.239 493.2 212.071 492.88 210.823 492.88C209.575 492.88 208.423 493.184 207.367 493.792C206.311 494.4 205.447 495.296 204.775 496.48C204.135 497.632 203.815 499.008 203.815 500.608C203.815 502.208 204.135 503.616 204.775 504.832C205.447 506.016 206.311 506.928 207.367 507.568C208.455 508.208 209.607 508.528 210.823 508.528C212.071 508.528 213.239 508.224 214.327 507.616C215.415 506.976 216.279 506.08 216.919 504.928C217.559 503.744 217.879 502.336 217.879 500.704ZM237.93 478.48V514H231.21V478.48H237.93ZM269.29 500.128C269.29 501.088 269.226 501.952 269.098 502.72H249.658C249.818 504.64 250.49 506.144 251.674 507.232C252.858 508.32 254.314 508.864 256.042 508.864C258.538 508.864 260.314 507.792 261.37 505.648H268.618C267.85 508.208 266.378 510.32 264.202 511.984C262.026 513.616 259.354 514.432 256.186 514.432C253.626 514.432 251.322 513.872 249.274 512.752C247.258 511.6 245.674 509.984 244.522 507.904C243.402 505.824 242.842 503.424 242.842 500.704C242.842 497.952 243.402 495.536 244.522 493.456C245.642 491.376 247.21 489.776 249.226 488.656C251.242 487.536 253.562 486.976 256.186 486.976C258.714 486.976 260.97 487.52 262.954 488.608C264.97 489.696 266.522 491.248 267.61 493.264C268.73 495.248 269.29 497.536 269.29 500.128ZM262.33 498.208C262.298 496.48 261.674 495.104 260.458 494.08C259.242 493.024 257.754 492.496 255.994 492.496C254.33 492.496 252.922 493.008 251.77 494.032C250.65 495.024 249.962 496.416 249.706 498.208H262.33ZM295.808 514.432C293.632 514.432 291.68 514.048 289.952 513.28C288.224 512.48 286.848 511.408 285.824 510.064C284.832 508.72 284.288 507.232 284.192 505.6H290.96C291.088 506.624 291.584 507.472 292.448 508.144C293.344 508.816 294.448 509.152 295.76 509.152C297.04 509.152 298.032 508.896 298.736 508.384C299.472 507.872 299.84 507.216 299.84 506.416C299.84 505.552 299.392 504.912 298.496 504.496C297.632 504.048 296.24 503.568 294.32 503.056C292.336 502.576 290.704 502.08 289.424 501.568C288.176 501.056 287.088 500.272 286.16 499.216C285.264 498.16 284.816 496.736 284.816 494.944C284.816 493.472 285.232 492.128 286.064 490.912C286.928 489.696 288.144 488.736 289.712 488.032C291.312 487.328 293.184 486.976 295.328 486.976C298.496 486.976 301.024 487.776 302.912 489.376C304.8 490.944 305.84 493.072 306.032 495.76H299.6C299.504 494.704 299.056 493.872 298.256 493.264C297.488 492.624 296.448 492.304 295.136 492.304C293.92 492.304 292.976 492.528 292.304 492.976C291.664 493.424 291.344 494.048 291.344 494.848C291.344 495.744 291.792 496.432 292.688 496.912C293.584 497.36 294.976 497.824 296.864 498.304C298.784 498.784 300.368 499.28 301.616 499.792C302.864 500.304 303.936 501.104 304.832 502.192C305.76 503.248 306.24 504.656 306.272 506.416C306.272 507.952 305.84 509.328 304.976 510.544C304.144 511.76 302.928 512.72 301.328 513.424C299.76 514.096 297.92 514.432 295.808 514.432ZM323.597 514.432C321.037 514.432 318.733 513.872 316.685 512.752C314.637 511.6 313.021 509.984 311.837 507.904C310.685 505.824 310.109 503.424 310.109 500.704C310.109 497.984 310.701 495.584 311.885 493.504C313.101 491.424 314.749 489.824 316.829 488.704C318.909 487.552 321.229 486.976 323.789 486.976C326.349 486.976 328.669 487.552 330.749 488.704C332.829 489.824 334.461 491.424 335.645 493.504C336.861 495.584 337.469 497.984 337.469 500.704C337.469 503.424 336.845 505.824 335.597 507.904C334.381 509.984 332.717 511.6 330.605 512.752C328.525 513.872 326.189 514.432 323.597 514.432ZM323.597 508.576C324.813 508.576 325.949 508.288 327.005 507.712C328.093 507.104 328.957 506.208 329.597 505.024C330.237 503.84 330.557 502.4 330.557 500.704C330.557 498.176 329.885 496.24 328.541 494.896C327.229 493.52 325.613 492.832 323.693 492.832C321.773 492.832 320.157 493.52 318.845 494.896C317.565 496.24 316.925 498.176 316.925 500.704C316.925 503.232 317.549 505.184 318.797 506.56C320.077 507.904 321.677 508.576 323.597 508.576ZM367.502 487.408V514H360.734V510.64C359.87 511.792 358.734 512.704 357.326 513.376C355.95 514.016 354.446 514.336 352.814 514.336C350.734 514.336 348.894 513.904 347.294 513.04C345.694 512.144 344.43 510.848 343.502 509.152C342.606 507.424 342.158 505.376 342.158 503.008V487.408H348.878V502.048C348.878 504.16 349.406 505.792 350.462 506.944C351.518 508.064 352.958 508.624 354.782 508.624C356.638 508.624 358.094 508.064 359.15 506.944C360.206 505.792 360.734 504.16 360.734 502.048V487.408H367.502ZM380.852 491.536C381.716 490.128 382.836 489.024 384.212 488.224C385.62 487.424 387.22 487.024 389.012 487.024V494.08H387.236C385.124 494.08 383.524 494.576 382.436 495.568C381.38 496.56 380.852 498.288 380.852 500.752V514H374.132V487.408H380.852V491.536ZM391.811 500.704C391.811 497.952 392.371 495.552 393.491 493.504C394.611 491.424 396.163 489.824 398.147 488.704C400.131 487.552 402.403 486.976 404.963 486.976C408.259 486.976 410.979 487.808 413.123 489.472C415.299 491.104 416.755 493.408 417.491 496.384H410.243C409.859 495.232 409.203 494.336 408.275 493.696C407.379 493.024 406.259 492.688 404.915 492.688C402.995 492.688 401.475 493.392 400.355 494.8C399.235 496.176 398.675 498.144 398.675 500.704C398.675 503.232 399.235 505.2 400.355 506.608C401.475 507.984 402.995 508.672 404.915 508.672C407.635 508.672 409.411 507.456 410.243 505.024H417.491C416.755 507.904 415.299 510.192 413.123 511.888C410.947 513.584 408.227 514.432 404.963 514.432C402.403 514.432 400.131 513.872 398.147 512.752C396.163 511.6 394.611 510 393.491 507.952C392.371 505.872 391.811 503.456 391.811 500.704ZM447.134 500.128C447.134 501.088 447.07 501.952 446.942 502.72H427.502C427.662 504.64 428.334 506.144 429.518 507.232C430.702 508.32 432.158 508.864 433.886 508.864C436.382 508.864 438.158 507.792 439.214 505.648H446.462C445.694 508.208 444.222 510.32 442.046 511.984C439.87 513.616 437.198 514.432 434.03 514.432C431.47 514.432 429.166 513.872 427.118 512.752C425.102 511.6 423.518 509.984 422.366 507.904C421.246 505.824 420.686 503.424 420.686 500.704C420.686 497.952 421.246 495.536 422.366 493.456C423.486 491.376 425.054 489.776 427.07 488.656C429.086 487.536 431.406 486.976 434.03 486.976C436.558 486.976 438.814 487.52 440.798 488.608C442.814 489.696 444.366 491.248 445.454 493.264C446.574 495.248 447.134 497.536 447.134 500.128ZM440.174 498.208C440.142 496.48 439.518 495.104 438.302 494.08C437.086 493.024 435.598 492.496 433.838 492.496C432.174 492.496 430.766 493.008 429.614 494.032C428.494 495.024 427.806 496.416 427.55 498.208H440.174ZM475.284 514.432C472.724 514.432 470.42 513.872 468.372 512.752C466.324 511.6 464.708 509.984 463.524 507.904C462.372 505.824 461.796 503.424 461.796 500.704C461.796 497.984 462.388 495.584 463.572 493.504C464.788 491.424 466.436 489.824 468.516 488.704C470.596 487.552 472.916 486.976 475.476 486.976C478.036 486.976 480.356 487.552 482.436 488.704C484.516 489.824 486.148 491.424 487.332 493.504C488.548 495.584 489.156 497.984 489.156 500.704C489.156 503.424 488.532 505.824 487.284 507.904C486.068 509.984 484.404 511.6 482.292 512.752C480.212 513.872 477.876 514.432 475.284 514.432ZM475.284 508.576C476.5 508.576 477.636 508.288 478.692 507.712C479.78 507.104 480.644 506.208 481.284 505.024C481.924 503.84 482.244 502.4 482.244 500.704C482.244 498.176 481.572 496.24 480.228 494.896C478.916 493.52 477.3 492.832 475.38 492.832C473.46 492.832 471.844 493.52 470.532 494.896C469.252 496.24 468.612 498.176 468.612 500.704C468.612 503.232 469.236 505.184 470.484 506.56C471.764 507.904 473.364 508.576 475.284 508.576ZM506.277 492.928H501.621V514H494.805V492.928H491.781V487.408H494.805V486.064C494.805 482.8 495.733 480.4 497.589 478.864C499.445 477.328 502.245 476.608 505.989 476.704V482.368C504.357 482.336 503.221 482.608 502.581 483.184C501.941 483.76 501.621 484.8 501.621 486.304V487.408H506.277V492.928ZM529.894 492.928V505.792C529.894 506.688 530.102 507.344 530.518 507.76C530.966 508.144 531.702 508.336 532.726 508.336H535.846V514H531.622C525.958 514 523.126 511.248 523.126 505.744V492.928H519.958V487.408H523.126V480.832H529.894V487.408H535.846V492.928H529.894ZM547.399 491.536C548.263 490.128 549.383 489.024 550.759 488.224C552.167 487.424 553.767 487.024 555.559 487.024V494.08H553.783C551.671 494.08 550.071 494.576 548.983 495.568C547.927 496.56 547.399 498.288 547.399 500.752V514H540.679V487.408H547.399V491.536ZM585.189 487.408V514H578.421V510.64C577.557 511.792 576.421 512.704 575.013 513.376C573.637 514.016 572.133 514.336 570.501 514.336C568.421 514.336 566.581 513.904 564.981 513.04C563.381 512.144 562.117 510.848 561.189 509.152C560.293 507.424 559.845 505.376 559.845 503.008V487.408H566.565V502.048C566.565 504.16 567.093 505.792 568.149 506.944C569.205 508.064 570.645 508.624 572.469 508.624C574.325 508.624 575.781 508.064 576.837 506.944C577.893 505.792 578.421 504.16 578.421 502.048V487.408H585.189ZM599.644 492.928V505.792C599.644 506.688 599.852 507.344 600.268 507.76C600.716 508.144 601.452 508.336 602.476 508.336H605.596V514H601.372C595.708 514 592.876 511.248 592.876 505.744V492.928H589.708V487.408H592.876V480.832H599.644V487.408H605.596V492.928H599.644ZM625.405 487.024C627.421 487.024 629.213 487.472 630.781 488.368C632.349 489.232 633.565 490.528 634.429 492.256C635.325 493.952 635.773 496 635.773 498.4V514H629.053V499.312C629.053 497.2 628.525 495.584 627.469 494.464C626.413 493.312 624.973 492.736 623.149 492.736C621.293 492.736 619.821 493.312 618.733 494.464C617.677 495.584 617.149 497.2 617.149 499.312V514H610.429V478.48H617.149V490.72C618.013 489.568 619.165 488.672 620.605 488.032C622.045 487.36 623.645 487.024 625.405 487.024ZM665.793 492.928H661.137V514H654.321V492.928H651.297V487.408H654.321V486.064C654.321 482.8 655.249 480.4 657.105 478.864C658.961 477.328 661.761 476.608 665.505 476.704V482.368C663.873 482.336 662.737 482.608 662.097 483.184C661.457 483.76 661.137 484.8 661.137 486.304V487.408H665.793V492.928ZM681.956 514.432C679.396 514.432 677.092 513.872 675.044 512.752C672.996 511.6 671.38 509.984 670.196 507.904C669.044 505.824 668.468 503.424 668.468 500.704C668.468 497.984 669.06 495.584 670.244 493.504C671.46 491.424 673.108 489.824 675.188 488.704C677.268 487.552 679.588 486.976 682.148 486.976C684.708 486.976 687.028 487.552 689.108 488.704C691.188 489.824 692.82 491.424 694.004 493.504C695.22 495.584 695.828 497.984 695.828 500.704C695.828 503.424 695.204 505.824 693.956 507.904C692.74 509.984 691.076 511.6 688.964 512.752C686.884 513.872 684.548 514.432 681.956 514.432ZM681.956 508.576C683.172 508.576 684.308 508.288 685.364 507.712C686.452 507.104 687.316 506.208 687.956 505.024C688.596 503.84 688.916 502.4 688.916 500.704C688.916 498.176 688.244 496.24 686.9 494.896C685.588 493.52 683.972 492.832 682.052 492.832C680.132 492.832 678.516 493.52 677.204 494.896C675.924 496.24 675.284 498.176 675.284 500.704C675.284 503.232 675.908 505.184 677.156 506.56C678.436 507.904 680.036 508.576 681.956 508.576ZM707.477 491.536C708.341 490.128 709.461 489.024 710.837 488.224C712.245 487.424 713.845 487.024 715.637 487.024V494.08H713.861C711.749 494.08 710.149 494.576 709.061 495.568C708.005 496.56 707.477 498.288 707.477 500.752V514H700.757V487.408H707.477V491.536ZM741.777 514.432C739.601 514.432 737.649 514.048 735.921 513.28C734.193 512.48 732.817 511.408 731.793 510.064C730.801 508.72 730.257 507.232 730.161 505.6H736.929C737.057 506.624 737.553 507.472 738.417 508.144C739.313 508.816 740.417 509.152 741.729 509.152C743.009 509.152 744.001 508.896 744.705 508.384C745.441 507.872 745.809 507.216 745.809 506.416C745.809 505.552 745.361 504.912 744.465 504.496C743.601 504.048 742.209 503.568 740.289 503.056C738.305 502.576 736.673 502.08 735.393 501.568C734.145 501.056 733.057 500.272 732.129 499.216C731.233 498.16 730.785 496.736 730.785 494.944C730.785 493.472 731.201 492.128 732.033 490.912C732.897 489.696 734.113 488.736 735.681 488.032C737.281 487.328 739.153 486.976 741.297 486.976C744.465 486.976 746.993 487.776 748.881 489.376C750.769 490.944 751.809 493.072 752.001 495.76H745.569C745.473 494.704 745.025 493.872 744.225 493.264C743.457 492.624 742.417 492.304 741.105 492.304C739.889 492.304 738.945 492.528 738.273 492.976C737.633 493.424 737.313 494.048 737.313 494.848C737.313 495.744 737.761 496.432 738.657 496.912C739.553 497.36 740.945 497.824 742.833 498.304C744.753 498.784 746.337 499.28 747.585 499.792C748.833 500.304 749.905 501.104 750.801 502.192C751.729 503.248 752.209 504.656 752.241 506.416C752.241 507.952 751.809 509.328 750.945 510.544C750.113 511.76 748.897 512.72 747.297 513.424C745.729 514.096 743.889 514.432 741.777 514.432ZM765.581 492.928V505.792C765.581 506.688 765.789 507.344 766.205 507.76C766.653 508.144 767.389 508.336 768.413 508.336H771.533V514H767.309C761.645 514 758.813 511.248 758.813 505.744V492.928H755.645V487.408H758.813V480.832H765.581V487.408H771.533V492.928H765.581ZM801.471 487.408V514H794.703V510.64C793.839 511.792 792.703 512.704 791.295 513.376C789.919 514.016 788.415 514.336 786.783 514.336C784.703 514.336 782.863 513.904 781.263 513.04C779.663 512.144 778.399 510.848 777.471 509.152C776.575 507.424 776.127 505.376 776.127 503.008V487.408H782.847V502.048C782.847 504.16 783.375 505.792 784.431 506.944C785.487 508.064 786.927 508.624 788.751 508.624C790.607 508.624 792.063 508.064 793.119 506.944C794.175 505.792 794.703 504.16 794.703 502.048V487.408H801.471ZM806.373 500.608C806.373 497.92 806.901 495.536 807.957 493.456C809.045 491.376 810.517 489.776 812.373 488.656C814.229 487.536 816.293 486.976 818.565 486.976C820.293 486.976 821.941 487.36 823.509 488.128C825.077 488.864 826.325 489.856 827.253 491.104V478.48H834.069V514H827.253V510.064C826.421 511.376 825.253 512.432 823.749 513.232C822.245 514.032 820.501 514.432 818.517 514.432C816.277 514.432 814.229 513.856 812.373 512.704C810.517 511.552 809.045 509.936 807.957 507.856C806.901 505.744 806.373 503.328 806.373 500.608ZM827.301 500.704C827.301 499.072 826.981 497.68 826.341 496.528C825.701 495.344 824.837 494.448 823.749 493.84C822.661 493.2 821.493 492.88 820.245 492.88C818.997 492.88 817.845 493.184 816.789 493.792C815.733 494.4 814.869 495.296 814.197 496.48C813.557 497.632 813.237 499.008 813.237 500.608C813.237 502.208 813.557 503.616 814.197 504.832C814.869 506.016 815.733 506.928 816.789 507.568C817.877 508.208 819.029 508.528 820.245 508.528C821.493 508.528 822.661 508.224 823.749 507.616C824.837 506.976 825.701 506.08 826.341 504.928C826.981 503.744 827.301 502.336 827.301 500.704ZM865.352 500.128C865.352 501.088 865.288 501.952 865.16 502.72H845.72C845.88 504.64 846.552 506.144 847.736 507.232C848.92 508.32 850.376 508.864 852.104 508.864C854.6 508.864 856.376 507.792 857.432 505.648H864.68C863.912 508.208 862.44 510.32 860.264 511.984C858.088 513.616 855.416 514.432 852.248 514.432C849.688 514.432 847.384 513.872 845.336 512.752C843.32 511.6 841.736 509.984 840.584 507.904C839.464 505.824 838.904 503.424 838.904 500.704C838.904 497.952 839.464 495.536 840.584 493.456C841.704 491.376 843.272 489.776 845.288 488.656C847.304 487.536 849.624 486.976 852.248 486.976C854.776 486.976 857.032 487.52 859.016 488.608C861.032 489.696 862.584 491.248 863.672 493.264C864.792 495.248 865.352 497.536 865.352 500.128ZM858.392 498.208C858.36 496.48 857.736 495.104 856.52 494.08C855.304 493.024 853.816 492.496 852.056 492.496C850.392 492.496 848.984 493.008 847.832 494.032C846.712 495.024 846.024 496.416 845.768 498.208H858.392ZM884.993 487.024C888.161 487.024 890.721 488.032 892.673 490.048C894.625 492.032 895.601 494.816 895.601 498.4V514H888.881V499.312C888.881 497.2 888.353 495.584 887.297 494.464C886.241 493.312 884.801 492.736 882.977 492.736C881.121 492.736 879.649 493.312 878.561 494.464C877.505 495.584 876.977 497.2 876.977 499.312V514H870.257V487.408H876.977V490.72C877.873 489.568 879.009 488.672 880.385 488.032C881.793 487.36 883.329 487.024 884.993 487.024ZM909.816 492.928V505.792C909.816 506.688 910.024 507.344 910.44 507.76C910.888 508.144 911.624 508.336 912.648 508.336H915.768V514H911.544C905.88 514 903.048 511.248 903.048 505.744V492.928H899.88V487.408H903.048V480.832H909.816V487.408H915.768V492.928H909.816ZM947.015 487.024C949.031 487.024 950.823 487.472 952.391 488.368C953.959 489.232 955.175 490.528 956.039 492.256C956.935 493.952 957.383 496 957.383 498.4V514H950.663V499.312C950.663 497.2 950.135 495.584 949.079 494.464C948.023 493.312 946.583 492.736 944.759 492.736C942.903 492.736 941.431 493.312 940.343 494.464C939.287 495.584 938.759 497.2 938.759 499.312V514H932.039V478.48H938.759V490.72C939.623 489.568 940.775 488.672 942.215 488.032C943.655 487.36 945.255 487.024 947.015 487.024ZM975.581 514.432C973.021 514.432 970.717 513.872 968.669 512.752C966.621 511.6 965.005 509.984 963.821 507.904C962.669 505.824 962.093 503.424 962.093 500.704C962.093 497.984 962.685 495.584 963.869 493.504C965.085 491.424 966.733 489.824 968.813 488.704C970.893 487.552 973.213 486.976 975.773 486.976C978.333 486.976 980.653 487.552 982.733 488.704C984.813 489.824 986.445 491.424 987.629 493.504C988.845 495.584 989.453 497.984 989.453 500.704C989.453 503.424 988.829 505.824 987.581 507.904C986.365 509.984 984.701 511.6 982.589 512.752C980.509 513.872 978.173 514.432 975.581 514.432ZM975.581 508.576C976.797 508.576 977.933 508.288 978.989 507.712C980.077 507.104 980.941 506.208 981.581 505.024C982.221 503.84 982.541 502.4 982.541 500.704C982.541 498.176 981.869 496.24 980.525 494.896C979.213 493.52 977.597 492.832 975.677 492.832C973.757 492.832 972.141 493.52 970.829 494.896C969.549 496.24 968.909 498.176 968.909 500.704C968.909 503.232 969.533 505.184 970.781 506.56C972.061 507.904 973.661 508.576 975.581 508.576ZM1019.49 487.408V514H1012.72V510.64C1011.85 511.792 1010.72 512.704 1009.31 513.376C1007.93 514.016 1006.43 514.336 1004.8 514.336C1002.72 514.336 1000.88 513.904 999.278 513.04C997.678 512.144 996.414 510.848 995.486 509.152C994.59 507.424 994.142 505.376 994.142 503.008V487.408H1000.86V502.048C1000.86 504.16 1001.39 505.792 1002.45 506.944C1003.5 508.064 1004.94 508.624 1006.77 508.624C1008.62 508.624 1010.08 508.064 1011.13 506.944C1012.19 505.792 1012.72 504.16 1012.72 502.048V487.408H1019.49ZM1036.29 514.432C1034.12 514.432 1032.16 514.048 1030.44 513.28C1028.71 512.48 1027.33 511.408 1026.31 510.064C1025.32 508.72 1024.77 507.232 1024.68 505.6H1031.44C1031.57 506.624 1032.07 507.472 1032.93 508.144C1033.83 508.816 1034.93 509.152 1036.24 509.152C1037.52 509.152 1038.52 508.896 1039.22 508.384C1039.96 507.872 1040.32 507.216 1040.32 506.416C1040.32 505.552 1039.88 504.912 1038.98 504.496C1038.12 504.048 1036.72 503.568 1034.8 503.056C1032.82 502.576 1031.19 502.08 1029.91 501.568C1028.66 501.056 1027.57 500.272 1026.64 499.216C1025.75 498.16 1025.3 496.736 1025.3 494.944C1025.3 493.472 1025.72 492.128 1026.55 490.912C1027.41 489.696 1028.63 488.736 1030.2 488.032C1031.8 487.328 1033.67 486.976 1035.81 486.976C1038.98 486.976 1041.51 487.776 1043.4 489.376C1045.28 490.944 1046.32 493.072 1046.52 495.76H1040.08C1039.99 494.704 1039.54 493.872 1038.74 493.264C1037.97 492.624 1036.93 492.304 1035.62 492.304C1034.4 492.304 1033.46 492.528 1032.79 492.976C1032.15 493.424 1031.83 494.048 1031.83 494.848C1031.83 495.744 1032.28 496.432 1033.17 496.912C1034.07 497.36 1035.46 497.824 1037.35 498.304C1039.27 498.784 1040.85 499.28 1042.1 499.792C1043.35 500.304 1044.42 501.104 1045.32 502.192C1046.24 503.248 1046.72 504.656 1046.76 506.416C1046.76 507.952 1046.32 509.328 1045.46 510.544C1044.63 511.76 1043.41 512.72 1041.81 513.424C1040.24 514.096 1038.4 514.432 1036.29 514.432ZM1055.68 484.24C1054.5 484.24 1053.5 483.872 1052.7 483.136C1051.94 482.368 1051.55 481.424 1051.55 480.304C1051.55 479.184 1051.94 478.256 1052.7 477.52C1053.5 476.752 1054.5 476.368 1055.68 476.368C1056.86 476.368 1057.84 476.752 1058.61 477.52C1059.41 478.256 1059.81 479.184 1059.81 480.304C1059.81 481.424 1059.41 482.368 1058.61 483.136C1057.84 483.872 1056.86 484.24 1055.68 484.24ZM1058.99 487.408V514H1052.27V487.408H1058.99ZM1080.37 487.024C1083.54 487.024 1086.1 488.032 1088.05 490.048C1090 492.032 1090.98 494.816 1090.98 498.4V514H1084.26V499.312C1084.26 497.2 1083.73 495.584 1082.67 494.464C1081.62 493.312 1080.18 492.736 1078.35 492.736C1076.5 492.736 1075.02 493.312 1073.94 494.464C1072.88 495.584 1072.35 497.2 1072.35 499.312V514H1065.63V487.408H1072.35V490.72C1073.25 489.568 1074.38 488.672 1075.76 488.032C1077.17 487.36 1078.7 487.024 1080.37 487.024ZM1107.78 486.976C1109.77 486.976 1111.51 487.376 1113.01 488.176C1114.52 488.944 1115.7 489.952 1116.57 491.2V487.408H1123.33V514.192C1123.33 516.656 1122.84 518.848 1121.85 520.768C1120.85 522.72 1119.37 524.256 1117.38 525.376C1115.4 526.528 1113 527.104 1110.18 527.104C1106.41 527.104 1103.3 526.224 1100.87 524.464C1098.47 522.704 1097.11 520.304 1096.79 517.264H1103.46C1103.81 518.48 1104.57 519.44 1105.72 520.144C1106.9 520.88 1108.33 521.248 1109.99 521.248C1111.94 521.248 1113.53 520.656 1114.74 519.472C1115.96 518.32 1116.57 516.56 1116.57 514.192V510.064C1115.7 511.312 1114.5 512.352 1112.97 513.184C1111.46 514.016 1109.73 514.432 1107.78 514.432C1105.54 514.432 1103.49 513.856 1101.64 512.704C1099.78 511.552 1098.31 509.936 1097.22 507.856C1096.17 505.744 1095.64 503.328 1095.64 500.608C1095.64 497.92 1096.17 495.536 1097.22 493.456C1098.31 491.376 1099.77 489.776 1101.59 488.656C1103.45 487.536 1105.51 486.976 1107.78 486.976ZM1116.57 500.704C1116.57 499.072 1116.25 497.68 1115.61 496.528C1114.97 495.344 1114.1 494.448 1113.01 493.84C1111.93 493.2 1110.76 492.88 1109.51 492.88C1108.26 492.88 1107.11 493.184 1106.05 493.792C1105 494.4 1104.13 495.296 1103.46 496.48C1102.82 497.632 1102.5 499.008 1102.5 500.608C1102.5 502.208 1102.82 503.616 1103.46 504.832C1104.13 506.016 1105 506.928 1106.05 507.568C1107.14 508.208 1108.29 508.528 1109.51 508.528C1110.76 508.528 1111.93 508.224 1113.01 507.616C1114.1 506.976 1114.97 506.08 1115.61 504.928C1116.25 503.744 1116.57 502.336 1116.57 500.704Z" fill="#FEC400"/>
</svg>
