<svg width="1127" height="533" viewBox="0 0 1127 533" fill="none" xmlns="http://www.w3.org/2000/svg">
<path fill-rule="evenodd" clip-rule="evenodd" d="M557.623 0.867636C526.995 6.27674 499.688 21.1867 480.68 42.8774C444.97 83.6315 438.668 145.159 465.763 188.53C473.635 201.133 483.249 211.839 516.328 244.839C550.686 279.115 554.12 282.059 563.804 285.533C566.744 286.588 570.286 287.008 576.167 287C585.228 286.988 590.512 285.372 599.158 279.973C603.843 277.046 673.275 208.641 675.134 205.121C676.719 202.117 676.601 197.931 674.858 195.326C673.181 192.818 668.523 188.523 653.229 175.383C642.033 165.764 639.155 164.181 634.896 165.3C633.086 165.776 620.066 177.768 595.394 201.679C588.742 208.126 582.099 214.02 580.63 214.778C576.678 216.816 572.395 215.933 567.274 212.022C560.902 207.156 530.511 176.977 525.296 170.337C507.983 148.294 504.104 125.432 513.871 103.013C518.878 91.5223 530.349 77.9963 541.178 70.8135C553.545 62.6102 565.251 59.3292 579.876 59.9665C597.558 60.7362 609.469 66.3368 624.455 80.9253C629.363 85.7029 633.857 89.9147 634.443 90.2856C636.287 91.4524 642.062 91.0437 644.185 89.5957C648.052 86.9594 675.624 60.2049 676.787 57.9592C679.408 52.9029 678.087 49.6359 669.792 40.6629C663.288 33.6273 653.893 25.8253 644.987 20.0651C632.058 11.7023 621.428 7.11631 605.426 2.99822C595.921 0.551875 593.911 0.324927 579.464 0.060968C568.893 -0.131451 561.796 0.130031 557.623 0.867636ZM566.691 89.1253C565.56 89.3358 562.407 90.5273 559.686 91.7731C538.624 101.415 532.964 128.984 548.361 146.931C558.627 158.897 577.866 162.44 592.402 155.042C601.615 150.352 608.972 139.712 610.279 129.185C613.094 106.515 597.274 88.2446 575.163 88.6303C571.636 88.6919 567.824 88.9148 566.691 89.1253Z" fill="#FEC400"/>
<path d="M130.688 366.22C130.688 358.193 132.322 351.193 135.588 345.22C138.855 339.153 143.382 334.487 149.168 331.22C154.955 327.86 161.582 326.18 169.048 326.18C178.662 326.18 186.595 328.607 192.848 333.46C199.195 338.22 203.442 344.94 205.588 353.62H184.448C183.328 350.26 181.415 347.647 178.708 345.78C176.095 343.82 172.828 342.84 168.908 342.84C163.308 342.84 158.875 344.893 155.608 349C152.342 353.013 150.708 358.753 150.708 366.22C150.708 373.593 152.342 379.333 155.608 383.44C158.875 387.453 163.308 389.46 168.908 389.46C176.842 389.46 182.022 385.913 184.448 378.82H205.588C203.442 387.22 199.195 393.893 192.848 398.84C186.502 403.787 178.568 406.26 169.048 406.26C161.582 406.26 154.955 404.627 149.168 401.36C143.382 398 138.855 393.333 135.588 387.36C132.322 381.293 130.688 374.247 130.688 366.22ZM214.907 365.94C214.907 358.1 216.447 351.147 219.527 345.08C222.7 339.013 226.947 334.347 232.267 331.08C237.68 327.813 243.7 326.18 250.327 326.18C256.114 326.18 261.154 327.347 265.447 329.68C269.834 332.013 273.334 334.953 275.947 338.5V327.44H295.687V405H275.947V393.66C273.427 397.3 269.927 400.333 265.447 402.76C261.06 405.093 255.974 406.26 250.187 406.26C243.654 406.26 237.68 404.58 232.267 401.22C226.947 397.86 222.7 393.147 219.527 387.08C216.447 380.92 214.907 373.873 214.907 365.94ZM275.947 366.22C275.947 361.46 275.014 357.4 273.147 354.04C271.28 350.587 268.76 347.973 265.587 346.2C262.414 344.333 259.007 343.4 255.367 343.4C251.727 343.4 248.367 344.287 245.287 346.06C242.207 347.833 239.687 350.447 237.727 353.9C235.86 357.26 234.927 361.273 234.927 365.94C234.927 370.607 235.86 374.713 237.727 378.26C239.687 381.713 242.207 384.373 245.287 386.24C248.46 388.107 251.82 389.04 255.367 389.04C259.007 389.04 262.414 388.153 265.587 386.38C268.76 384.513 271.28 381.9 273.147 378.54C275.014 375.087 275.947 370.98 275.947 366.22ZM411.15 326.32C420.67 326.32 428.323 329.26 434.11 335.14C439.99 340.927 442.93 349.047 442.93 359.5V405H423.33V362.16C423.33 356.093 421.79 351.473 418.71 348.3C415.63 345.033 411.43 343.4 406.11 343.4C400.79 343.4 396.543 345.033 393.37 348.3C390.29 351.473 388.75 356.093 388.75 362.16V405H369.15V362.16C369.15 356.093 367.61 351.473 364.53 348.3C361.45 345.033 357.25 343.4 351.93 343.4C346.517 343.4 342.223 345.033 339.05 348.3C335.97 351.473 334.43 356.093 334.43 362.16V405H314.83V327.44H334.43V336.82C336.95 333.553 340.17 330.987 344.09 329.12C348.103 327.253 352.49 326.32 357.25 326.32C363.317 326.32 368.73 327.627 373.49 330.24C378.25 332.76 381.937 336.4 384.55 341.16C387.07 336.68 390.71 333.087 395.47 330.38C400.323 327.673 405.55 326.32 411.15 326.32ZM481.129 338.64C483.649 335.093 487.102 332.153 491.489 329.82C495.969 327.393 501.056 326.18 506.749 326.18C513.376 326.18 519.349 327.813 524.669 331.08C530.082 334.347 534.329 339.013 537.409 345.08C540.582 351.053 542.169 358.007 542.169 365.94C542.169 373.873 540.582 380.92 537.409 387.08C534.329 393.147 530.082 397.86 524.669 401.22C519.349 404.58 513.376 406.26 506.749 406.26C501.056 406.26 496.016 405.093 491.629 402.76C487.336 400.427 483.836 397.487 481.129 393.94V441.96H461.529V327.44H481.129V338.64ZM522.149 365.94C522.149 361.273 521.169 357.26 519.209 353.9C517.342 350.447 514.822 347.833 511.649 346.06C508.569 344.287 505.209 343.4 501.569 343.4C498.022 343.4 494.662 344.333 491.489 346.2C488.409 347.973 485.889 350.587 483.929 354.04C482.062 357.493 481.129 361.553 481.129 366.22C481.129 370.887 482.062 374.947 483.929 378.4C485.889 381.853 488.409 384.513 491.489 386.38C494.662 388.153 498.022 389.04 501.569 389.04C505.209 389.04 508.569 388.107 511.649 386.24C514.822 384.373 517.342 381.713 519.209 378.26C521.169 374.807 522.149 370.7 522.149 365.94ZM629.632 327.44V405H609.892V395.2C607.372 398.56 604.059 401.22 599.952 403.18C595.939 405.047 591.552 405.98 586.792 405.98C580.725 405.98 575.359 404.72 570.692 402.2C566.025 399.587 562.339 395.807 559.632 390.86C557.019 385.82 555.712 379.847 555.712 372.94V327.44H575.312V370.14C575.312 376.3 576.852 381.06 579.932 384.42C583.012 387.687 587.212 389.32 592.532 389.32C597.945 389.32 602.192 387.687 605.272 384.42C608.352 381.06 609.892 376.3 609.892 370.14V327.44H629.632ZM678.651 406.26C672.304 406.26 666.611 405.14 661.571 402.9C656.531 400.567 652.517 397.44 649.531 393.52C646.637 389.6 645.051 385.26 644.771 380.5H664.511C664.884 383.487 666.331 385.96 668.851 387.92C671.464 389.88 674.684 390.86 678.511 390.86C682.244 390.86 685.137 390.113 687.191 388.62C689.337 387.127 690.411 385.213 690.411 382.88C690.411 380.36 689.104 378.493 686.491 377.28C683.971 375.973 679.911 374.573 674.311 373.08C668.524 371.68 663.764 370.233 660.031 368.74C656.391 367.247 653.217 364.96 650.511 361.88C647.897 358.8 646.591 354.647 646.591 349.42C646.591 345.127 647.804 341.207 650.231 337.66C652.751 334.113 656.297 331.313 660.871 329.26C665.537 327.207 670.997 326.18 677.251 326.18C686.491 326.18 693.864 328.513 699.371 333.18C704.877 337.753 707.911 343.96 708.471 351.8H689.711C689.431 348.72 688.124 346.293 685.791 344.52C683.551 342.653 680.517 341.72 676.691 341.72C673.144 341.72 670.391 342.373 668.431 343.68C666.564 344.987 665.631 346.807 665.631 349.14C665.631 351.753 666.937 353.76 669.551 355.16C672.164 356.467 676.224 357.82 681.731 359.22C687.331 360.62 691.951 362.067 695.591 363.56C699.231 365.053 702.357 367.387 704.971 370.56C707.677 373.64 709.077 377.747 709.171 382.88C709.171 387.36 707.911 391.373 705.391 394.92C702.964 398.467 699.417 401.267 694.751 403.32C690.177 405.28 684.811 406.26 678.651 406.26ZM755.64 326.18C761.426 326.18 766.513 327.347 770.9 329.68C775.286 331.92 778.74 334.86 781.26 338.5V327.44H801V405.56C801 412.747 799.553 419.14 796.66 424.74C793.766 430.433 789.426 434.913 783.64 438.18C777.853 441.54 770.853 443.22 762.64 443.22C751.626 443.22 742.573 440.653 735.48 435.52C728.48 430.387 724.513 423.387 723.58 414.52H743.04C744.066 418.067 746.26 420.867 749.62 422.92C753.073 425.067 757.226 426.14 762.08 426.14C767.773 426.14 772.393 424.413 775.94 420.96C779.486 417.6 781.26 412.467 781.26 405.56V393.52C778.74 397.16 775.24 400.193 770.76 402.62C766.373 405.047 761.333 406.26 755.64 406.26C749.106 406.26 743.133 404.58 737.72 401.22C732.306 397.86 728.013 393.147 724.84 387.08C721.76 380.92 720.22 373.873 720.22 365.94C720.22 358.1 721.76 351.147 724.84 345.08C728.013 339.013 732.26 334.347 737.58 331.08C742.993 327.813 749.013 326.18 755.64 326.18ZM781.26 366.22C781.26 361.46 780.326 357.4 778.46 354.04C776.593 350.587 774.073 347.973 770.9 346.2C767.726 344.333 764.32 343.4 760.68 343.4C757.04 343.4 753.68 344.287 750.6 346.06C747.52 347.833 745 350.447 743.04 353.9C741.173 357.26 740.24 361.273 740.24 365.94C740.24 370.607 741.173 374.713 743.04 378.26C745 381.713 747.52 384.373 750.6 386.24C753.773 388.107 757.133 389.04 760.68 389.04C764.32 389.04 767.726 388.153 770.9 386.38C774.073 384.513 776.593 381.9 778.46 378.54C780.326 375.087 781.26 370.98 781.26 366.22ZM839.742 339.48C842.262 335.373 845.529 332.153 849.542 329.82C853.649 327.487 858.316 326.32 863.542 326.32V346.9H858.362C852.202 346.9 847.536 348.347 844.362 351.24C841.282 354.133 839.742 359.173 839.742 366.36V405H820.142V327.44H839.742V339.48ZM886.684 318.2C883.231 318.2 880.337 317.127 878.004 314.98C875.764 312.74 874.644 309.987 874.644 306.72C874.644 303.453 875.764 300.747 878.004 298.6C880.337 296.36 883.231 295.24 886.684 295.24C890.137 295.24 892.984 296.36 895.224 298.6C897.557 300.747 898.724 303.453 898.724 306.72C898.724 309.987 897.557 312.74 895.224 314.98C892.984 317.127 890.137 318.2 886.684 318.2ZM896.344 327.44V405H876.744V327.44H896.344ZM910.669 365.94C910.669 358.1 912.209 351.147 915.289 345.08C918.462 339.013 922.755 334.347 928.169 331.08C933.582 327.813 939.602 326.18 946.229 326.18C951.269 326.18 956.075 327.3 960.649 329.54C965.222 331.687 968.862 334.58 971.569 338.22V301.4H991.449V405H971.569V393.52C969.142 397.347 965.735 400.427 961.349 402.76C956.962 405.093 951.875 406.26 946.089 406.26C939.555 406.26 933.582 404.58 928.169 401.22C922.755 397.86 918.462 393.147 915.289 387.08C912.209 380.92 910.669 373.873 910.669 365.94ZM971.709 366.22C971.709 361.46 970.775 357.4 968.909 354.04C967.042 350.587 964.522 347.973 961.349 346.2C958.175 344.333 954.769 343.4 951.129 343.4C947.489 343.4 944.129 344.287 941.049 346.06C937.969 347.833 935.449 350.447 933.489 353.9C931.622 357.26 930.689 361.273 930.689 365.94C930.689 370.607 931.622 374.713 933.489 378.26C935.449 381.713 937.969 384.373 941.049 386.24C944.222 388.107 947.582 389.04 951.129 389.04C954.769 389.04 958.175 388.153 961.349 386.38C964.522 384.513 967.042 381.9 968.909 378.54C970.775 375.087 971.709 370.98 971.709 366.22Z" fill="#FEC400"/>
<path d="M30.3661 480.496L19.0381 502.336V514H12.3181V502.336L0.942063 480.496H8.52606L15.7261 495.808L22.8781 480.496H30.3661ZM46.0497 514.432C43.4897 514.432 41.1857 513.872 39.1377 512.752C37.0897 511.6 35.4737 509.984 34.2897 507.904C33.1377 505.824 32.5617 503.424 32.5617 500.704C32.5617 497.984 33.1537 495.584 34.3377 493.504C35.5537 491.424 37.2017 489.824 39.2817 488.704C41.3617 487.552 43.6817 486.976 46.2417 486.976C48.8017 486.976 51.1217 487.552 53.2017 488.704C55.2817 489.824 56.9137 491.424 58.0977 493.504C59.3137 495.584 59.9217 497.984 59.9217 500.704C59.9217 503.424 59.2977 505.824 58.0497 507.904C56.8337 509.984 55.1697 511.6 53.0577 512.752C50.9777 513.872 48.6417 514.432 46.0497 514.432ZM46.0497 508.576C47.2657 508.576 48.4017 508.288 49.4577 507.712C50.5457 507.104 51.4097 506.208 52.0497 505.024C52.6897 503.84 53.0097 502.4 53.0097 500.704C53.0097 498.176 52.3377 496.24 50.9937 494.896C49.6817 493.52 48.0657 492.832 46.1457 492.832C44.2257 492.832 42.6097 493.52 41.2977 494.896C40.0177 496.24 39.3777 498.176 39.3777 500.704C39.3777 503.232 40.0017 505.184 41.2497 506.56C42.5297 507.904 44.1297 508.576 46.0497 508.576ZM89.9551 487.408V514H83.1871V510.64C82.3231 511.792 81.1871 512.704 79.7791 513.376C78.4031 514.016 76.8991 514.336 75.2671 514.336C73.1871 514.336 71.3471 513.904 69.7471 513.04C68.1471 512.144 66.8831 510.848 65.9551 509.152C65.0591 507.424 64.6111 505.376 64.6111 503.008V487.408H71.3311V502.048C71.3311 504.16 71.8591 505.792 72.9151 506.944C73.9711 508.064 75.4111 508.624 77.2351 508.624C79.0911 508.624 80.5471 508.064 81.6031 506.944C82.6591 505.792 83.1871 504.16 83.1871 502.048V487.408H89.9551ZM103.305 491.536C104.169 490.128 105.289 489.024 106.665 488.224C108.073 487.424 109.673 487.024 111.465 487.024V494.08H109.689C107.577 494.08 105.977 494.576 104.889 495.568C103.833 496.56 103.305 498.288 103.305 500.752V514H96.5854V487.408H103.305V491.536ZM137.605 514.432C135.429 514.432 133.477 514.048 131.749 513.28C130.021 512.48 128.645 511.408 127.621 510.064C126.629 508.72 126.085 507.232 125.989 505.6H132.757C132.885 506.624 133.381 507.472 134.245 508.144C135.141 508.816 136.245 509.152 137.557 509.152C138.837 509.152 139.829 508.896 140.533 508.384C141.269 507.872 141.637 507.216 141.637 506.416C141.637 505.552 141.189 504.912 140.293 504.496C139.429 504.048 138.037 503.568 136.117 503.056C134.133 502.576 132.501 502.08 131.221 501.568C129.973 501.056 128.885 500.272 127.957 499.216C127.061 498.16 126.613 496.736 126.613 494.944C126.613 493.472 127.029 492.128 127.861 490.912C128.725 489.696 129.941 488.736 131.509 488.032C133.109 487.328 134.981 486.976 137.125 486.976C140.293 486.976 142.821 487.776 144.709 489.376C146.597 490.944 147.637 493.072 147.829 495.76H141.397C141.301 494.704 140.853 493.872 140.053 493.264C139.285 492.624 138.245 492.304 136.933 492.304C135.717 492.304 134.773 492.528 134.101 492.976C133.461 493.424 133.141 494.048 133.141 494.848C133.141 495.744 133.589 496.432 134.485 496.912C135.381 497.36 136.773 497.824 138.661 498.304C140.581 498.784 142.165 499.28 143.413 499.792C144.661 500.304 145.733 501.104 146.629 502.192C147.557 503.248 148.037 504.656 148.069 506.416C148.069 507.952 147.637 509.328 146.773 510.544C145.941 511.76 144.725 512.72 143.125 513.424C141.557 514.096 139.717 514.432 137.605 514.432ZM156.993 484.24C155.809 484.24 154.817 483.872 154.017 483.136C153.249 482.368 152.865 481.424 152.865 480.304C152.865 479.184 153.249 478.256 154.017 477.52C154.817 476.752 155.809 476.368 156.993 476.368C158.177 476.368 159.153 476.752 159.921 477.52C160.721 478.256 161.121 479.184 161.121 480.304C161.121 481.424 160.721 482.368 159.921 483.136C159.153 483.872 158.177 484.24 156.993 484.24ZM160.305 487.408V514H153.585V487.408H160.305ZM181.681 487.024C184.849 487.024 187.409 488.032 189.361 490.048C191.313 492.032 192.289 494.816 192.289 498.4V514H185.569V499.312C185.569 497.2 185.041 495.584 183.985 494.464C182.929 493.312 181.489 492.736 179.665 492.736C177.809 492.736 176.337 493.312 175.249 494.464C174.193 495.584 173.665 497.2 173.665 499.312V514H166.945V487.408H173.665V490.72C174.561 489.568 175.697 488.672 177.073 488.032C178.481 487.36 180.017 487.024 181.681 487.024ZM209.095 486.976C211.079 486.976 212.823 487.376 214.327 488.176C215.831 488.944 217.015 489.952 217.879 491.2V487.408H224.647V514.192C224.647 516.656 224.151 518.848 223.159 520.768C222.167 522.72 220.679 524.256 218.695 525.376C216.711 526.528 214.311 527.104 211.495 527.104C207.719 527.104 204.615 526.224 202.183 524.464C199.783 522.704 198.423 520.304 198.103 517.264H204.775C205.127 518.48 205.879 519.44 207.031 520.144C208.215 520.88 209.639 521.248 211.303 521.248C213.255 521.248 214.839 520.656 216.055 519.472C217.271 518.32 217.879 516.56 217.879 514.192V510.064C217.015 511.312 215.815 512.352 214.279 513.184C212.775 514.016 211.047 514.432 209.095 514.432C206.855 514.432 204.807 513.856 202.951 512.704C201.095 511.552 199.623 509.936 198.535 507.856C197.479 505.744 196.951 503.328 196.951 500.608C196.951 497.92 197.479 495.536 198.535 493.456C199.623 491.376 201.079 489.776 202.903 488.656C204.759 487.536 206.823 486.976 209.095 486.976ZM217.879 500.704C217.879 499.072 217.559 497.68 216.919 496.528C216.279 495.344 215.415 494.448 214.327 493.84C213.239 493.2 212.071 492.88 210.823 492.88C209.575 492.88 208.423 493.184 207.367 493.792C206.311 494.4 205.447 495.296 204.775 496.48C204.135 497.632 203.815 499.008 203.815 500.608C203.815 502.208 204.135 503.616 204.775 504.832C205.447 506.016 206.311 506.928 207.367 507.568C208.455 508.208 209.607 508.528 210.823 508.528C212.071 508.528 213.239 508.224 214.327 507.616C215.415 506.976 216.279 506.08 216.919 504.928C217.559 503.744 217.879 502.336 217.879 500.704ZM237.93 478.48V514H231.21V478.48H237.93ZM269.29 500.128C269.29 501.088 269.226 501.952 269.098 502.72H249.658C249.818 504.64 250.49 506.144 251.674 507.232C252.858 508.32 254.314 508.864 256.042 508.864C258.538 508.864 260.314 507.792 261.37 505.648H268.618C267.85 508.208 266.378 510.32 264.202 511.984C262.026 513.616 259.354 514.432 256.186 514.432C253.626 514.432 251.322 513.872 249.274 512.752C247.258 511.6 245.674 509.984 244.522 507.904C243.402 505.824 242.842 503.424 242.842 500.704C242.842 497.952 243.402 495.536 244.522 493.456C245.642 491.376 247.21 489.776 249.226 488.656C251.242 487.536 253.562 486.976 256.186 486.976C258.714 486.976 260.97 487.52 262.954 488.608C264.97 489.696 266.522 491.248 267.61 493.264C268.73 495.248 269.29 497.536 269.29 500.128ZM262.33 498.208C262.298 496.48 261.674 495.104 260.458 494.08C259.242 493.024 257.754 492.496 255.994 492.496C254.33 492.496 252.922 493.008 251.77 494.032C250.65 495.024 249.962 496.416 249.706 498.208H262.33ZM295.808 514.432C293.632 514.432 291.68 514.048 289.952 513.28C288.224 512.48 286.848 511.408 285.824 510.064C284.832 508.72 284.288 507.232 284.192 505.6H290.96C291.088 506.624 291.584 507.472 292.448 508.144C293.344 508.816 294.448 509.152 295.76 509.152C297.04 509.152 298.032 508.896 298.736 508.384C299.472 507.872 299.84 507.216 299.84 506.416C299.84 505.552 299.392 504.912 298.496 504.496C297.632 504.048 296.24 503.568 294.32 503.056C292.336 502.576 290.704 502.08 289.424 501.568C288.176 501.056 287.088 500.272 286.16 499.216C285.264 498.16 284.816 496.736 284.816 494.944C284.816 493.472 285.232 492.128 286.064 490.912C286.928 489.696 288.144 488.736 289.712 488.032C291.312 487.328 293.184 486.976 295.328 486.976C298.496 486.976 301.024 487.776 302.912 489.376C304.8 490.944 305.84 493.072 306.032 495.76H299.6C299.504 494.704 299.056 493.872 298.256 493.264C297.488 492.624 296.448 492.304 295.136 492.304C293.92 492.304 292.976 492.528 292.304 492.976C291.664 493.424 291.344 494.048 291.344 494.848C291.344 495.744 291.792 496.432 292.688 496.912C293.584 497.36 294.976 497.824 296.864 498.304C298.784 498.784 300.368 499.28 301.616 499.792C302.864 500.304 303.936 501.104 304.832 502.192C305.76 503.248 306.24 504.656 306.272 506.416C306.272 507.952 305.84 509.328 304.976 510.544C304.144 511.76 302.928 512.72 301.328 513.424C299.76 514.096 297.92 514.432 295.808 514.432ZM323.597 514.432C321.037 514.432 318.733 513.872 316.685 512.752C314.637 511.6 313.021 509.984 311.837 507.904C310.685 505.824 310.109 503.424 310.109 500.704C310.109 497.984 310.701 495.584 311.885 493.504C313.101 491.424 314.749 489.824 316.829 488.704C318.909 487.552 321.229 486.976 323.789 486.976C326.349 486.976 328.669 487.552 330.749 488.704C332.829 489.824 334.461 491.424 335.645 493.504C336.861 495.584 337.469 497.984 337.469 500.704C337.469 503.424 336.845 505.824 335.597 507.904C334.381 509.984 332.717 511.6 330.605 512.752C328.525 513.872 326.189 514.432 323.597 514.432ZM323.597 508.576C324.813 508.576 325.949 508.288 327.005 507.712C328.093 507.104 328.957 506.208 329.597 505.024C330.237 503.84 330.557 502.4 330.557 500.704C330.557 498.176 329.885 496.24 328.541 494.896C327.229 493.52 325.613 492.832 323.693 492.832C321.773 492.832 320.157 493.52 318.845 494.896C317.565 496.24 316.925 498.176 316.925 500.704C316.925 503.232 317.549 505.184 318.797 506.56C320.077 507.904 321.677 508.576 323.597 508.576ZM367.502 487.408V514H360.734V510.64C359.87 511.792 358.734 512.704 357.326 513.376C355.95 514.016 354.446 514.336 352.814 514.336C350.734 514.336 348.894 513.904 347.294 513.04C345.694 512.144 344.43 510.848 343.502 509.152C342.606 507.424 342.158 505.376 342.158 503.008V487.408H348.878V502.048C348.878 504.16 349.406 505.792 350.462 506.944C351.518 508.064 352.958 508.624 354.782 508.624C356.638 508.624 358.094 508.064 359.15 506.944C360.206 505.792 360.734 504.16 360.734 502.048V487.408H367.502ZM380.852 491.536C381.716 490.128 382.836 489.024 384.212 488.224C385.62 487.424 387.22 487.024 389.012 487.024V494.08H387.236C385.124 494.08 383.524 494.576 382.436 495.568C381.38 496.56 380.852 498.288 380.852 500.752V514H374.132V487.408H380.852V491.536ZM391.811 500.704C391.811 497.952 392.371 495.552 393.491 493.504C394.611 491.424 396.163 489.824 398.147 488.704C400.131 487.552 402.403 486.976 404.963 486.976C408.259 486.976 410.979 487.808 413.123 489.472C415.299 491.104 416.755 493.408 417.491 496.384H410.243C409.859 495.232 409.203 494.336 408.275 493.696C407.379 493.024 406.259 492.688 404.915 492.688C402.995 492.688 401.475 493.392 400.355 494.8C399.235 496.176 398.675 498.144 398.675 500.704C398.675 503.232 399.235 505.2 400.355 506.608C401.475 507.984 402.995 508.672 404.915 508.672C407.635 508.672 409.411 507.456 410.243 505.024H417.491C416.755 507.904 415.299 510.192 413.123 511.888C410.947 513.584 408.227 514.432 404.963 514.432C402.403 514.432 400.131 513.872 398.147 512.752C396.163 511.6 394.611 510 393.491 507.952C392.371 505.872 391.811 503.456 391.811 500.704ZM447.134 500.128C447.134 501.088 447.07 501.952 446.942 502.72H427.502C427.662 504.64 428.334 506.144 429.518 507.232C430.702 508.32 432.158 508.864 433.886 508.864C436.382 508.864 438.158 507.792 439.214 505.648H446.462C445.694 508.208 444.222 510.32 442.046 511.984C439.87 513.616 437.198 514.432 434.03 514.432C431.47 514.432 429.166 513.872 427.118 512.752C425.102 511.6 423.518 509.984 422.366 507.904C421.246 505.824 420.686 503.424 420.686 500.704C420.686 497.952 421.246 495.536 422.366 493.456C423.486 491.376 425.054 489.776 427.07 488.656C429.086 487.536 431.406 486.976 434.03 486.976C436.558 486.976 438.814 487.52 440.798 488.608C442.814 489.696 444.366 491.248 445.454 493.264C446.574 495.248 447.134 497.536 447.134 500.128ZM440.174 498.208C440.142 496.48 439.518 495.104 438.302 494.08C437.086 493.024 435.598 492.496 433.838 492.496C432.174 492.496 430.766 493.008 429.614 494.032C428.494 495.024 427.806 496.416 427.55 498.208H440.174ZM475.284 514.432C472.724 514.432 470.42 513.872 468.372 512.752C466.324 511.6 464.708 509.984 463.524 507.904C462.372 505.824 461.796 503.424 461.796 500.704C461.796 497.984 462.388 495.584 463.572 493.504C464.788 491.424 466.436 489.824 468.516 488.704C470.596 487.552 472.916 486.976 475.476 486.976C478.036 486.976 480.356 487.552 482.436 488.704C484.516 489.824 486.148 491.424 487.332 493.504C488.548 495.584 489.156 497.984 489.156 500.704C489.156 503.424 488.532 505.824 487.284 507.904C486.068 509.984 484.404 511.6 482.292 512.752C480.212 513.872 477.876 514.432 475.284 514.432ZM475.284 508.576C476.5 508.576 477.636 508.288 478.692 507.712C479.78 507.104 480.644 506.208 481.284 505.024C481.924 503.84 482.244 502.4 482.244 500.704C482.244 498.176 481.572 496.24 480.228 494.896C478.916 493.52 477.3 492.832 475.38 492.832C473.46 492.832 471.844 493.52 470.532 494.896C469.252 496.24 468.612 498.176 468.612 500.704C468.612 503.232 469.236 505.184 470.484 506.56C471.764 507.904 473.364 508.576 475.284 508.576ZM506.277 492.928H501.621V514H494.805V492.928H491.781V487.408H494.805V486.064C494.805 482.8 495.733 480.4 497.589 478.864C499.445 477.328 502.245 476.608 505.989 476.704V482.368C504.357 482.336 503.221 482.608 502.581 483.184C501.941 483.76 501.621 484.8 501.621 486.304V487.408H506.277V492.928ZM529.894 492.928V505.792C529.894 506.688 530.102 507.344 530.518 507.76C530.966 508.144 531.702 508.336 532.726 508.336H535.846V514H531.622C525.958 514 523.126 511.248 523.126 505.744V492.928H519.958V487.408H523.126V480.832H529.894V487.408H535.846V492.928H529.894ZM547.399 491.536C548.263 490.128 549.383 489.024 550.759 488.224C552.167 487.424 553.767 487.024 555.559 487.024V494.08H553.783C551.671 494.08 550.071 494.576 548.983 495.568C547.927 496.56 547.399 498.288 547.399 500.752V514H540.679V487.408H547.399V491.536ZM585.189 487.408V514H578.421V510.64C577.557 511.792 576.421 512.704 575.013 513.376C573.637 514.016 572.133 514.336 570.501 514.336C568.421 514.336 566.581 513.904 564.981 513.04C563.381 512.144 562.117 510.848 561.189 509.152C560.293 507.424 559.845 505.376 559.845 503.008V487.408H566.565V502.048C566.565 504.16 567.093 505.792 568.149 506.944C569.205 508.064 570.645 508.624 572.469 508.624C574.325 508.624 575.781 508.064 576.837 506.944C577.893 505.792 578.421 504.16 578.421 502.048V487.408H585.189ZM599.644 492.928V505.792C599.644 506.688 599.852 507.344 600.268 507.76C600.716 508.144 601.452 508.336 602.476 508.336H605.596V514H601.372C595.708 514 592.876 511.248 592.876 505.744V492.928H589.708V487.408H592.876V480.832H599.644V487.408H605.596V492.928H599.644ZM625.405 487.024C627.421 487.024 629.213 487.472 630.781 488.368C632.349 489.232 633.565 490.528 634.429 492.256C635.325 493.952 635.773 496 635.773 498.4V514H629.053V499.312C629.053 497.2 628.525 495.584 627.469 494.464C626.413 493.312 624.973 492.736 623.149 492.736C621.293 492.736 619.821 493.312 618.733 494.464C617.677 495.584 617.149 497.2 617.149 499.312V514H610.429V478.48H617.149V490.72C618.013 489.568 619.165 488.672 620.605 488.032C622.045 487.36 623.645 487.024 625.405 487.024ZM665.793 492.928H661.137V514H654.321V492.928H651.297V487.408H654.321V486.064C654.321 482.8 655.249 480.4 657.105 478.864C658.961 477.328 661.761 476.608 665.505 476.704V482.368C663.873 482.336 662.737 482.608 662.097 483.184C661.457 483.76 661.137 484.8 661.137 486.304V487.408H665.793V492.928ZM681.956 514.432C679.396 514.432 677.092 513.872 675.044 512.752C672.996 511.6 671.38 509.984 670.196 507.904C669.044 505.824 668.468 503.424 668.468 500.704C668.468 497.984 669.06 495.584 670.244 493.504C671.46 491.424 673.108 489.824 675.188 488.704C677.268 487.552 679.588 486.976 682.148 486.976C684.708 486.976 687.028 487.552 689.108 488.704C691.188 489.824 692.82 491.424 694.004 493.504C695.22 495.584 695.828 497.984 695.828 500.704C695.828 503.424 695.204 505.824 693.956 507.904C692.74 509.984 691.076 511.6 688.964 512.752C686.884 513.872 684.548 514.432 681.956 514.432ZM681.956 508.576C683.172 508.576 684.308 508.288 685.364 507.712C686.452 507.104 687.316 506.208 687.956 505.024C688.596 503.84 688.916 502.4 688.916 500.704C688.916 498.176 688.244 496.24 686.9 494.896C685.588 493.52 683.972 492.832 682.052 492.832C680.132 492.832 678.516 493.52 677.204 494.896C675.924 496.24 675.284 498.176 675.284 500.704C675.284 503.232 675.908 505.184 677.156 506.56C678.436 507.904 680.036 508.576 681.956 508.576ZM707.477 491.536C708.341 490.128 709.461 489.024 710.837 488.224C712.245 487.424 713.845 487.024 715.637 487.024V494.08H713.861C711.749 494.08 710.149 494.576 709.061 495.568C708.005 496.56 707.477 498.288 707.477 500.752V514H700.757V487.408H707.477V491.536ZM741.777 514.432C739.601 514.432 737.649 514.048 735.921 513.28C734.193 512.48 732.817 511.408 731.793 510.064C730.801 508.72 730.257 507.232 730.161 505.6H736.929C737.057 506.624 737.553 507.472 738.417 508.144C739.313 508.816 740.417 509.152 741.729 509.152C743.009 509.152 744.001 508.896 744.705 508.384C745.441 507.872 745.809 507.216 745.809 506.416C745.809 505.552 745.361 504.912 744.465 504.496C743.601 504.048 742.209 503.568 740.289 503.056C738.305 502.576 736.673 502.08 735.393 501.568C734.145 501.056 733.057 500.272 732.129 499.216C731.233 498.16 730.785 496.736 730.785 494.944C730.785 493.472 731.201 492.128 732.033 490.912C732.897 489.696 734.113 488.736 735.681 488.032C737.281 487.328 739.153 486.976 741.297 486.976C744.465 486.976 746.993 487.776 748.881 489.376C750.769 490.944 751.809 493.072 752.001 495.76H745.569C745.473 494.704 745.025 493.872 744.225 493.264C743.457 492.624 742.417 492.304 741.105 492.304C739.889 492.304 738.945 492.528 738.273 492.976C737.633 493.424 737.313 494.048 737.313 494.848C737.313 495.744 737.761 496.432 738.657 496.912C739.553 497.36 740.945 497.824 742.833 498.304C744.753 498.784 746.337 499.28 747.585 499.792C748.833 500.304 749.905 501.104 750.801 502.192C751.729 503.248 752.209 504.656 752.241 506.416C752.241 507.952 751.809 509.328 750.945 510.544C750.113 511.76 748.897 512.72 747.297 513.424C745.729 514.096 743.889 514.432 741.777 514.432ZM765.581 492.928V505.792C765.581 506.688 765.789 507.344 766.205 507.76C766.653 508.144 767.389 508.336 768.413 508.336H771.533V514H767.309C761.645 514 758.813 511.248 758.813 505.744V492.928H755.645V487.408H758.813V480.832H765.581V487.408H771.533V492.928H765.581ZM801.471 487.408V514H794.703V510.64C793.839 511.792 792.703 512.704 791.295 513.376C789.919 514.016 788.415 514.336 786.783 514.336C784.703 514.336 782.863 513.904 781.263 513.04C779.663 512.144 778.399 510.848 777.471 509.152C776.575 507.424 776.127 505.376 776.127 503.008V487.408H782.847V502.048C782.847 504.16 783.375 505.792 784.431 506.944C785.487 508.064 786.927 508.624 788.751 508.624C790.607 508.624 792.063 508.064 793.119 506.944C794.175 505.792 794.703 504.16 794.703 502.048V487.408H801.471ZM806.373 500.608C806.373 497.92 806.901 495.536 807.957 493.456C809.045 491.376 810.517 489.776 812.373 488.656C814.229 487.536 816.293 486.976 818.565 486.976C820.293 486.976 821.941 487.36 823.509 488.128C825.077 488.864 826.325 489.856 827.253 491.104V478.48H834.069V514H827.253V510.064C826.421 511.376 825.253 512.432 823.749 513.232C822.245 514.032 820.501 514.432 818.517 514.432C816.277 514.432 814.229 513.856 812.373 512.704C810.517 511.552 809.045 509.936 807.957 507.856C806.901 505.744 806.373 503.328 806.373 500.608ZM827.301 500.704C827.301 499.072 826.981 497.68 826.341 496.528C825.701 495.344 824.837 494.448 823.749 493.84C822.661 493.2 821.493 492.88 820.245 492.88C818.997 492.88 817.845 493.184 816.789 493.792C815.733 494.4 814.869 495.296 814.197 496.48C813.557 497.632 813.237 499.008 813.237 500.608C813.237 502.208 813.557 503.616 814.197 504.832C814.869 506.016 815.733 506.928 816.789 507.568C817.877 508.208 819.029 508.528 820.245 508.528C821.493 508.528 822.661 508.224 823.749 507.616C824.837 506.976 825.701 506.08 826.341 504.928C826.981 503.744 827.301 502.336 827.301 500.704ZM865.352 500.128C865.352 501.088 865.288 501.952 865.16 502.72H845.72C845.88 504.64 846.552 506.144 847.736 507.232C848.92 508.32 850.376 508.864 852.104 508.864C854.6 508.864 856.376 507.792 857.432 505.648H864.68C863.912 508.208 862.44 510.32 860.264 511.984C858.088 513.616 855.416 514.432 852.248 514.432C849.688 514.432 847.384 513.872 845.336 512.752C843.32 511.6 841.736 509.984 840.584 507.904C839.464 505.824 838.904 503.424 838.904 500.704C838.904 497.952 839.464 495.536 840.584 493.456C841.704 491.376 843.272 489.776 845.288 488.656C847.304 487.536 849.624 486.976 852.248 486.976C854.776 486.976 857.032 487.52 859.016 488.608C861.032 489.696 862.584 491.248 863.672 493.264C864.792 495.248 865.352 497.536 865.352 500.128ZM858.392 498.208C858.36 496.48 857.736 495.104 856.52 494.08C855.304 493.024 853.816 492.496 852.056 492.496C850.392 492.496 848.984 493.008 847.832 494.032C846.712 495.024 846.024 496.416 845.768 498.208H858.392ZM884.993 487.024C888.161 487.024 890.721 488.032 892.673 490.048C894.625 492.032 895.601 494.816 895.601 498.4V514H888.881V499.312C888.881 497.2 888.353 495.584 887.297 494.464C886.241 493.312 884.801 492.736 882.977 492.736C881.121 492.736 879.649 493.312 878.561 494.464C877.505 495.584 876.977 497.2 876.977 499.312V514H870.257V487.408H876.977V490.72C877.873 489.568 879.009 488.672 880.385 488.032C881.793 487.36 883.329 487.024 884.993 487.024ZM909.816 492.928V505.792C909.816 506.688 910.024 507.344 910.44 507.76C910.888 508.144 911.624 508.336 912.648 508.336H915.768V514H911.544C905.88 514 903.048 511.248 903.048 505.744V492.928H899.88V487.408H903.048V480.832H909.816V487.408H915.768V492.928H909.816ZM947.015 487.024C949.031 487.024 950.823 487.472 952.391 488.368C953.959 489.232 955.175 490.528 956.039 492.256C956.935 493.952 957.383 496 957.383 498.4V514H950.663V499.312C950.663 497.2 950.135 495.584 949.079 494.464C948.023 493.312 946.583 492.736 944.759 492.736C942.903 492.736 941.431 493.312 940.343 494.464C939.287 495.584 938.759 497.2 938.759 499.312V514H932.039V478.48H938.759V490.72C939.623 489.568 940.775 488.672 942.215 488.032C943.655 487.36 945.255 487.024 947.015 487.024ZM975.581 514.432C973.021 514.432 970.717 513.872 968.669 512.752C966.621 511.6 965.005 509.984 963.821 507.904C962.669 505.824 962.093 503.424 962.093 500.704C962.093 497.984 962.685 495.584 963.869 493.504C965.085 491.424 966.733 489.824 968.813 488.704C970.893 487.552 973.213 486.976 975.773 486.976C978.333 486.976 980.653 487.552 982.733 488.704C984.813 489.824 986.445 491.424 987.629 493.504C988.845 495.584 989.453 497.984 989.453 500.704C989.453 503.424 988.829 505.824 987.581 507.904C986.365 509.984 984.701 511.6 982.589 512.752C980.509 513.872 978.173 514.432 975.581 514.432ZM975.581 508.576C976.797 508.576 977.933 508.288 978.989 507.712C980.077 507.104 980.941 506.208 981.581 505.024C982.221 503.84 982.541 502.4 982.541 500.704C982.541 498.176 981.869 496.24 980.525 494.896C979.213 493.52 977.597 492.832 975.677 492.832C973.757 492.832 972.141 493.52 970.829 494.896C969.549 496.24 968.909 498.176 968.909 500.704C968.909 503.232 969.533 505.184 970.781 506.56C972.061 507.904 973.661 508.576 975.581 508.576ZM1019.49 487.408V514H1012.72V510.64C1011.85 511.792 1010.72 512.704 1009.31 513.376C1007.93 514.016 1006.43 514.336 1004.8 514.336C1002.72 514.336 1000.88 513.904 999.278 513.04C997.678 512.144 996.414 510.848 995.486 509.152C994.59 507.424 994.142 505.376 994.142 503.008V487.408H1000.86V502.048C1000.86 504.16 1001.39 505.792 1002.45 506.944C1003.5 508.064 1004.94 508.624 1006.77 508.624C1008.62 508.624 1010.08 508.064 1011.13 506.944C1012.19 505.792 1012.72 504.16 1012.72 502.048V487.408H1019.49ZM1036.29 514.432C1034.12 514.432 1032.16 514.048 1030.44 513.28C1028.71 512.48 1027.33 511.408 1026.31 510.064C1025.32 508.72 1024.77 507.232 1024.68 505.6H1031.44C1031.57 506.624 1032.07 507.472 1032.93 508.144C1033.83 508.816 1034.93 509.152 1036.24 509.152C1037.52 509.152 1038.52 508.896 1039.22 508.384C1039.96 507.872 1040.32 507.216 1040.32 506.416C1040.32 505.552 1039.88 504.912 1038.98 504.496C1038.12 504.048 1036.72 503.568 1034.8 503.056C1032.82 502.576 1031.19 502.08 1029.91 501.568C1028.66 501.056 1027.57 500.272 1026.64 499.216C1025.75 498.16 1025.3 496.736 1025.3 494.944C1025.3 493.472 1025.72 492.128 1026.55 490.912C1027.41 489.696 1028.63 488.736 1030.2 488.032C1031.8 487.328 1033.67 486.976 1035.81 486.976C1038.98 486.976 1041.51 487.776 1043.4 489.376C1045.28 490.944 1046.32 493.072 1046.52 495.76H1040.08C1039.99 494.704 1039.54 493.872 1038.74 493.264C1037.97 492.624 1036.93 492.304 1035.62 492.304C1034.4 492.304 1033.46 492.528 1032.79 492.976C1032.15 493.424 1031.83 494.048 1031.83 494.848C1031.83 495.744 1032.28 496.432 1033.17 496.912C1034.07 497.36 1035.46 497.824 1037.35 498.304C1039.27 498.784 1040.85 499.28 1042.1 499.792C1043.35 500.304 1044.42 501.104 1045.32 502.192C1046.24 503.248 1046.72 504.656 1046.76 506.416C1046.76 507.952 1046.32 509.328 1045.46 510.544C1044.63 511.76 1043.41 512.72 1041.81 513.424C1040.24 514.096 1038.4 514.432 1036.29 514.432ZM1055.68 484.24C1054.5 484.24 1053.5 483.872 1052.7 483.136C1051.94 482.368 1051.55 481.424 1051.55 480.304C1051.55 479.184 1051.94 478.256 1052.7 477.52C1053.5 476.752 1054.5 476.368 1055.68 476.368C1056.86 476.368 1057.84 476.752 1058.61 477.52C1059.41 478.256 1059.81 479.184 1059.81 480.304C1059.81 481.424 1059.41 482.368 1058.61 483.136C1057.84 483.872 1056.86 484.24 1055.68 484.24ZM1058.99 487.408V514H1052.27V487.408H1058.99ZM1080.37 487.024C1083.54 487.024 1086.1 488.032 1088.05 490.048C1090 492.032 1090.98 494.816 1090.98 498.4V514H1084.26V499.312C1084.26 497.2 1083.73 495.584 1082.67 494.464C1081.62 493.312 1080.18 492.736 1078.35 492.736C1076.5 492.736 1075.02 493.312 1073.94 494.464C1072.88 495.584 1072.35 497.2 1072.35 499.312V514H1065.63V487.408H1072.35V490.72C1073.25 489.568 1074.38 488.672 1075.76 488.032C1077.17 487.36 1078.7 487.024 1080.37 487.024ZM1107.78 486.976C1109.77 486.976 1111.51 487.376 1113.01 488.176C1114.52 488.944 1115.7 489.952 1116.57 491.2V487.408H1123.33V514.192C1123.33 516.656 1122.84 518.848 1121.85 520.768C1120.85 522.72 1119.37 524.256 1117.38 525.376C1115.4 526.528 1113 527.104 1110.18 527.104C1106.41 527.104 1103.3 526.224 1100.87 524.464C1098.47 522.704 1097.11 520.304 1096.79 517.264H1103.46C1103.81 518.48 1104.57 519.44 1105.72 520.144C1106.9 520.88 1108.33 521.248 1109.99 521.248C1111.94 521.248 1113.53 520.656 1114.74 519.472C1115.96 518.32 1116.57 516.56 1116.57 514.192V510.064C1115.7 511.312 1114.5 512.352 1112.97 513.184C1111.46 514.016 1109.73 514.432 1107.78 514.432C1105.54 514.432 1103.49 513.856 1101.64 512.704C1099.78 511.552 1098.31 509.936 1097.22 507.856C1096.17 505.744 1095.64 503.328 1095.64 500.608C1095.64 497.92 1096.17 495.536 1097.22 493.456C1098.31 491.376 1099.77 489.776 1101.59 488.656C1103.45 487.536 1105.51 486.976 1107.78 486.976ZM1116.57 500.704C1116.57 499.072 1116.25 497.68 1115.61 496.528C1114.97 495.344 1114.1 494.448 1113.01 493.84C1111.93 493.2 1110.76 492.88 1109.51 492.88C1108.26 492.88 1107.11 493.184 1106.05 493.792C1105 494.4 1104.13 495.296 1103.46 496.48C1102.82 497.632 1102.5 499.008 1102.5 500.608C1102.5 502.208 1102.82 503.616 1103.46 504.832C1104.13 506.016 1105 506.928 1106.05 507.568C1107.14 508.208 1108.29 508.528 1109.51 508.528C1110.76 508.528 1111.93 508.224 1113.01 507.616C1114.1 506.976 1114.97 506.08 1115.61 504.928C1116.25 503.744 1116.57 502.336 1116.57 500.704Z" fill="#FEC400"/>
</svg>
