<svg width="727" height="915" viewBox="0 0 727 915" fill="none" xmlns="http://www.w3.org/2000/svg">
<path fill-rule="evenodd" clip-rule="evenodd" d="M344.842 2.76616C247.609 20.0112 160.918 67.5465 100.575 136.7C-12.7939 266.63 -32.7999 462.788 53.216 601.063C78.2091 641.242 108.731 675.375 213.743 780.584C322.818 889.861 333.721 899.246 364.466 910.323C373.799 913.686 385.045 915.026 403.714 915C432.48 914.96 449.254 909.809 476.702 892.595C491.577 883.265 712.001 665.18 717.902 653.957C722.933 644.38 722.559 631.036 717.025 622.728C711.7 614.732 696.914 601.042 648.359 559.148C612.816 528.48 603.679 523.434 590.16 527.002C584.414 528.52 543.078 566.751 464.752 642.985C443.637 663.536 422.545 682.328 417.882 684.745C405.336 691.244 391.74 688.428 375.481 675.957C355.253 660.445 258.771 564.229 242.216 543.062C187.253 472.784 174.937 399.898 205.946 328.422C221.841 291.787 258.255 248.664 292.634 225.764C331.898 199.611 369.058 189.151 415.488 191.182C471.623 193.636 509.437 211.492 557.011 258.002C572.592 273.234 586.86 286.662 588.721 287.844C594.574 291.564 612.908 290.261 619.648 285.645C631.925 277.24 719.456 191.943 723.15 184.783C731.471 168.663 727.277 158.247 700.941 129.64C680.294 107.209 650.468 82.3351 622.194 63.9706C581.148 37.3087 547.403 22.6879 496.6 9.55879C466.427 1.75946 460.045 1.03592 414.18 0.194375C380.62 -0.419085 358.089 0.414559 344.842 2.76616ZM373.631 284.145C370.039 284.816 360.031 288.615 351.391 292.587C284.528 323.325 266.558 411.221 315.44 468.44C348.029 506.587 409.109 517.884 455.254 494.297C484.504 479.346 507.859 445.425 512.009 411.863C520.945 339.585 470.72 281.337 400.527 282.567C389.328 282.763 377.226 283.474 373.631 284.145Z" fill="#FEC400"/>
</svg>
