<svg width="539" height="323" viewBox="0 0 539 323" fill="none" xmlns="http://www.w3.org/2000/svg">
<rect width="539" height="323" fill="#7E4FF0"/>
<path d="M238.005 181V173.832L237.685 172.488V160.264C237.685 157.661 236.917 155.656 235.381 154.248C233.888 152.797 231.626 152.072 228.597 152.072C226.592 152.072 224.629 152.413 222.709 153.096C220.789 153.736 219.168 154.611 217.845 155.72L215.285 151.112C217.034 149.704 219.125 148.637 221.557 147.912C224.032 147.144 226.613 146.76 229.301 146.76C233.952 146.76 237.536 147.891 240.053 150.152C242.57 152.413 243.829 155.869 243.829 160.52V181H238.005ZM226.869 181.384C224.352 181.384 222.133 180.957 220.213 180.104C218.336 179.251 216.885 178.077 215.861 176.584C214.837 175.048 214.325 173.32 214.325 171.4C214.325 169.565 214.752 167.901 215.605 166.408C216.501 164.915 217.93 163.72 219.893 162.824C221.898 161.928 224.586 161.48 227.957 161.48H238.709V165.896H228.213C225.141 165.896 223.072 166.408 222.005 167.432C220.938 168.456 220.405 169.693 220.405 171.144C220.405 172.808 221.066 174.152 222.389 175.176C223.712 176.157 225.546 176.648 227.893 176.648C230.197 176.648 232.202 176.136 233.909 175.112C235.658 174.088 236.917 172.595 237.685 170.632L238.901 174.856C238.09 176.861 236.661 178.461 234.613 179.656C232.565 180.808 229.984 181.384 226.869 181.384ZM256.095 181V144.072C256.095 140.744 257.055 138.099 258.975 136.136C260.938 134.131 263.711 133.128 267.295 133.128C268.618 133.128 269.876 133.299 271.071 133.64C272.308 133.939 273.354 134.429 274.207 135.112L272.351 139.784C271.711 139.272 270.986 138.888 270.175 138.632C269.364 138.333 268.511 138.184 267.615 138.184C265.823 138.184 264.458 138.696 263.519 139.72C262.58 140.701 262.111 142.173 262.111 144.136V148.68L262.239 151.496V181H256.095ZM250.335 152.136V147.08H271.967V152.136H250.335ZM278.72 181V144.072C278.72 140.744 279.68 138.099 281.6 136.136C283.563 134.131 286.336 133.128 289.92 133.128C291.243 133.128 292.501 133.299 293.696 133.64C294.933 133.939 295.979 134.429 296.832 135.112L294.976 139.784C294.336 139.272 293.611 138.888 292.8 138.632C291.989 138.333 291.136 138.184 290.24 138.184C288.448 138.184 287.083 138.696 286.144 139.72C285.205 140.701 284.736 142.173 284.736 144.136V148.68L284.864 151.496V181H278.72ZM272.96 152.136V147.08H294.592V152.136H272.96ZM302.484 193.8C300.862 193.8 299.284 193.523 297.748 192.968C296.212 192.456 294.889 191.688 293.779 190.664L296.404 186.056C297.257 186.867 298.196 187.485 299.22 187.912C300.244 188.339 301.332 188.552 302.484 188.552C303.977 188.552 305.214 188.168 306.196 187.4C307.177 186.632 308.094 185.267 308.948 183.304L311.06 178.632L311.7 177.864L325.012 147.08H331.028L314.58 184.392C313.598 186.781 312.489 188.659 311.252 190.024C310.057 191.389 308.734 192.349 307.284 192.904C305.833 193.501 304.233 193.8 302.484 193.8ZM310.548 182.088L295.059 147.08H301.46L314.644 177.288L310.548 182.088ZM349.347 181.384C345.934 181.384 343.288 180.467 341.411 178.632C339.534 176.797 338.595 174.173 338.595 170.76V139.656H344.739V170.504C344.739 172.339 345.187 173.747 346.083 174.728C347.022 175.709 348.344 176.2 350.051 176.2C351.971 176.2 353.571 175.667 354.851 174.6L356.771 179.016C355.832 179.827 354.702 180.424 353.379 180.808C352.099 181.192 350.755 181.384 349.347 181.384ZM332.835 152.136V147.08H354.467V152.136H332.835ZM377.602 181.384C374.189 181.384 371.159 180.637 368.514 179.144C365.869 177.651 363.778 175.603 362.242 173C360.706 170.355 359.938 167.368 359.938 164.04C359.938 160.669 360.706 157.683 362.242 155.08C363.778 152.477 365.869 150.451 368.514 149C371.159 147.507 374.189 146.76 377.602 146.76C380.973 146.76 383.981 147.507 386.626 149C389.314 150.451 391.405 152.477 392.898 155.08C394.434 157.64 395.202 160.627 395.202 164.04C395.202 167.411 394.434 170.397 392.898 173C391.405 175.603 389.314 177.651 386.626 179.144C383.981 180.637 380.973 181.384 377.602 181.384ZM377.602 176.008C379.778 176.008 381.719 175.517 383.426 174.536C385.175 173.555 386.541 172.168 387.522 170.376C388.503 168.541 388.994 166.429 388.994 164.04C388.994 161.608 388.503 159.517 387.522 157.768C386.541 155.976 385.175 154.589 383.426 153.608C381.719 152.627 379.778 152.136 377.602 152.136C375.426 152.136 373.485 152.627 371.778 153.608C370.071 154.589 368.706 155.976 367.682 157.768C366.658 159.517 366.146 161.608 366.146 164.04C366.146 166.429 366.658 168.541 367.682 170.376C368.706 172.168 370.071 173.555 371.778 174.536C373.485 175.517 375.426 176.008 377.602 176.008Z" fill="#FEFEFE"/>
<path d="M140 181V155.49C140 154.422 140.427 153.399 141.186 152.647L167.245 126.846C168.827 125.279 171.384 125.306 172.933 126.905L181.452 135.702M181.452 135.702L197.873 152.658C198.596 153.404 199 154.402 199 155.441V177C199 179.209 197.209 181 195 181H160.504C158.294 181 156.503 179.209 156.503 177V161.197C156.503 160.103 156.952 159.056 157.744 158.301L181.452 135.702Z" stroke="#FEFEFE" stroke-width="5" stroke-linecap="round"/>
</svg>
